<?xml version="1.0" encoding="utf-8"?>
<!-- Generator: Adobe Illustrator 26.0.2, SVG Export Plug-In . SVG Version: 6.00 Build 0)  -->
<svg version="1.1" id="レイヤー_1" xmlns="http://www.w3.org/2000/svg" xmlns:xlink="http://www.w3.org/1999/xlink" x="0px"
	 y="0px" viewBox="0 0 109.2 50.6" style="enable-background:new 0 0 109.2 50.6;" xml:space="preserve">
<style type="text/css">
	.st0{fill-rule:evenodd;clip-rule:evenodd;fill:#3D3B39;}
</style>
<g id="レイヤー_2_00000110464352221351306740000005994680293718784920_">
	<g id="レイヤー_1-2">
		<path class="st0" d="M30.2,8.2v0.5c-0.4,0.1-0.7,0.2-1,0.5v0.2l-1,0.2L28,10.1h-0.4l-0.5,0.7h-0.5l-0.7,1h-0.5l-0.2,0.5
			c-0.8,0.5-1.7,0.9-2.6,1.2V14c2.3-0.9,6.8-0.5,9.8-0.5c3.2-0.1,6.5,0.3,9.6,1.2l5,0.5v0.2h0.7v0.2h0.7v0.2h0.7v0.2h0.7v0.2h0.7
			v0.2h1v0.2l1.7,0.5v1.4h-0.5l-0.2,0.7l-1.2,1V21l-1.4,1.2v0.5l-0.5,0.2L48.7,25c-0.8,0.3-1.8,0.4-2.6,0.2V25h-0.7v-0.2l-1,0.2
			v-0.2h-0.5v-0.2H42v-0.2l-3.8-0.5v-0.2h-1.4v-0.2L36,23.6v-0.2h-1V23l-0.5,0.2C34,23.2,34,23,34,23h-4v-0.2
			c-0.8-0.2-1.4,0.3-1.9,0.2v-0.2c-0.3,0.1-0.7,0.2-1,0.2h-2.8v-0.2L22.1,23v0.5c0.5,0.1,0.6,0,1,0.2V24h0.5v0.2H24l0.2,0.5l1.4,0.5
			v0.2l0.7,0.2l0.2,0.5l1,0.2l0.2,0.5l1,0.2l0.2,0.5h0.5l0.5,0.7c0.3,0.2,1,0.2,1.2,0.5v0.5l0.7,0.5l-0.2,1L32,31h-0.2l-0.6,1.4H31
			v0.5l-0.5,0.2v0.5L30,33.8v0.5l-0.5,0.2c-1,1.5-0.7,2.7-3.4,2.6c-0.5-0.7-1.2-0.7-1.9-1.2L24,35.5h-0.5v-0.2L22.8,35l-0.5-0.7
			h-0.5V34h-0.5l-0.2-0.5h-0.5v-0.2h-0.5l-0.5-0.5h-0.5L19,32.4l-1.4-0.5c-0.9-0.6-1.8-1.1-2.9-1.4V30c-0.6-0.1-1.2-0.4-1.7-0.7
			l-0.2-0.5H12l-0.5-0.7l-1.2-0.2l-0.5-0.7H9.1v-0.2H8.6v-0.2l-0.7-0.2v-0.5c-0.7-0.1-1.3-0.3-1.9-0.7l-0.2-0.5H5.3v-0.2
			c-0.3-0.2-1-0.2-1.2-0.5v-0.5H3.4c-1.4-2.2-3.4-1-3.4-5c0.5-0.4,0.8-0.9,1-1.5h0.7c0.3-1.2,1.5-1.5,2.4-2.2l0.2-0.5h0.4l0.5-0.7
			h0.5l1-1.2h0.4L8.4,11h0.5l0.5-0.7h0.5l0.2-0.5h0.5l0.2-0.5h0.5V9.1L12,8.9V8.4h0.5c0.4-0.7,1-0.8,1.7-1.2l0.5-0.7h0.5L15.4,6h0.5
			l0.2-0.5l0.7-0.2l0.5-0.7h0.5L18,4.1l0.7-0.2V3.6l1-0.2L20,2.9l1-0.2l0.2-0.5l1-0.2V1.7h0.5V1.4l2-0.7L25,0.2L26.4,0
			c0.1,0.3,0.4,0.6,0.7,0.7h0.5l0.7,1h0.5l0.5,0.7L31,3.8v0.5l0.5,0.2c0.7,0.6,1.2,1.5,1.2,2.4C31.8,7.4,31.4,8,30.2,8.2L30.2,8.2z
			 M108.7,19.4v0.5c0.1,0.2,0.7,0.1,0.5,0.7H109l-0.2,0.7h-0.2v0.5l-0.5,0.2l-0.2,1l-0.5,0.2l-0.2,1l-1.7,1.4v0.5l-0.5,0.2V27h-0.2
			l-0.2,0.5h-1.7c-0.6-0.6-1.1-0.4-1.9-0.7v-0.3h-0.5v-0.2h-0.5v-0.2h-0.5v-0.2L98,25.2V25l-3-0.5v-0.2h-0.7V24h-0.7v-0.2l-2.4-0.5
			V23H90v-0.2h-0.7v-0.2h-1.2v-0.2h-1.2v-0.2h-3.6c-3.2-0.1-6.3,0.3-9.4,1.2h-1.7v0.2h-0.7v0.2h-0.7V24l-1,0.2v0.2h-0.7v0.2
			l-1.4,0.5v0.2l-1,0.2l-0.2,0.5l-1,0.2l-0.5,0.7l-0.7,0.2v0.2h-0.5l-0.2,0.5c-0.6,0.7-1.3,1.3-2.2,1.7c-0.1,0.5-0.4,1-0.7,1.4h-0.2
			l-0.7,2.4c0.4,0.5,0.2,1.3,0.5,1.9h0.2l0.2,1.2H61c0.3,0.3,0.4,0.6,0.5,1l1.4,0.5v0.2h1.2l1.4,0.2v-0.3l1.4-0.2
			c0.1-0.4,0.2-0.7,0.5-1h0.2c0.5-0.9,0.8-1.9,0.7-2.9c-0.5-0.4-0.2-0.5-0.5-1L67.5,33v-0.5h-0.3v-0.5H67c-0.5-0.4-0.8-0.9-1-1.4
			c0.3-0.3,0.1,0,0.2-0.5c0.4-0.1,0.7-0.2,1-0.5v-0.2l0.7-0.2l0.2-0.5h0.5l0.2-0.5l1.2-0.2v-0.2h0.5v-0.2c1.2-0.6,2.5-0.9,3.8-1
			c0.4,0.6,0.9,0.5,1.4,1l0.5,0.5v0.5l1,0.7v0.5c1.2,0.3,0.7,0.6,1.2,1.4l0.5,0.2l0.2,1.2h0.2v0.5h0.2v0.7H80v1h0.2v3.4H80l-0.2,2.6
			h-0.2l-0.2,1.4H79l-0.5,1.4h-0.2v0.5l-0.5,0.2v0.5l-1,0.7v0.5l-1.2,0.7l-1,1.2l-1,0.2l-0.2,0.5h-0.7V49l-1,0.2v0.2l-4.3,1.2
			L61,50.4v-0.2h-0.7v-0.2l-2.4-0.5v-0.2h-0.5V49L56,48.8v-0.2h-0.5L55.2,48h-0.5l-0.5-0.7h-0.5l-0.2-0.5H53l-0.2-0.5L52,46.1v-0.2
			c-0.3-0.3-0.6-0.4-1-0.5l-0.2-0.7h-0.2v-0.5l-0.5-0.2v-0.5h-0.2V43h-0.2v-0.7h-0.2v-0.7h-0.2l-0.2-1h-0.2l-0.2-2.4h-0.2v-1h0.2
			c0.1-0.5-0.2-0.5-0.2-0.5v-1.9h0.2v-2.6h0.2v-0.7H49v-1h0.2l0.2-1h0.2L50,28h0.2v-0.4l0.5-0.2l0.2-1l0.5-0.2v-0.5l0.5-0.2V25
			l0.5-0.2v-0.5l0.4-0.3v-0.5H53c0.5-0.5,0.9-1,1.2-1.7h0.5l0.7-1h0.2v-0.4h0.2c0.7-0.9,1.6-1.6,2.6-1.9V18c0.4,0,0.9-0.2,1.2-0.5
			v-0.2h0.5l0.2-0.5l1-0.2l0.2-0.5l1.2-0.2l0.2-0.5l1-0.2v-0.2l1-0.2v-0.2h0.7v-0.2h0.5v-0.2l11.3-2.4c1.8-0.2,3.5-0.1,5.3,0.2
			l3.6,0.2v0.2l4.8,0.2v0.2h1.2V13h0.7v0.2h0.7v0.2h0.7v0.2l1.9,0.2v0.2H97v0.2l1.7,0.2v0.2h0.5v0.2h0.7v0.2l1,0.2v0.2l1.2,0.2v0.2
			h0.7v0.2h0.7v0.2h0.5V17h0.5l0.2,0.5l1,0.2V18l1,0.2v0.2h0.7v0.2c0.4,0.4,0.9,0.6,1.4,0.7H108.7z"/>
	</g>
</g>
</svg>
