<svg width="104" height="101" viewBox="0 0 104 101" fill="none" xmlns="http://www.w3.org/2000/svg">
<path d="M93.4848 96.4744C93.5005 96.2528 93.5431 95.7767 93.5778 95.4155C93.6126 95.0544 93.598 94.5208 93.5453 94.2253C93.4926 93.9299 93.4859 93.4866 93.5296 93.2404C93.5734 92.9941 93.6642 92.3621 93.7292 91.845C93.7953 91.3278 93.8996 90.704 93.9601 90.4742C94.3143 89.0952 94.4959 88.2457 94.6405 87.2943C94.7391 86.6492 94.821 86.4242 95.0351 86.2199C95.1887 86.0713 95.3041 85.8488 95.3041 85.6995C95.3041 85.555 95.3826 85.349 95.479 85.2414C95.5754 85.1331 95.6987 84.8113 95.7514 84.5257C95.8668 83.9117 96.1953 81.3335 96.2592 80.5398C96.6044 76.3076 96.6022 76.4455 96.313 76.3905C96.0238 76.3347 96.0182 76.086 96.3062 76.086C96.4262 76.086 96.5517 76.0523 96.5865 76.0113C96.6705 75.912 96.8006 73.2 96.7894 71.798C96.7838 71.1717 96.721 70.5405 96.647 70.3771C96.536 70.1301 96.5439 70.0603 96.6941 69.938C96.9362 69.7426 96.9317 69.2247 96.6885 69.1558C96.5159 69.1082 96.5159 69.0967 96.6885 69.0039C96.8992 68.8898 96.8959 68.5377 96.656 65.9898C96.5741 65.1272 96.5506 64.0445 96.5966 63.2811C96.6986 61.5623 96.675 60.6619 96.4777 58.6845C96.3612 57.5099 96.2928 57.4073 96.0495 58.0435C95.9408 58.3283 95.7233 58.7633 95.5664 59.0112L95.2806 59.461L95.081 59.2804C94.8456 59.067 94.8838 58.4842 95.1629 58.0295C95.2593 57.8719 95.3747 57.4763 95.4184 57.1496C95.4622 56.8229 95.5799 56.4634 95.6808 56.3501C95.7816 56.2376 95.8646 56.0382 95.8646 55.9077C95.8646 55.7763 95.9677 55.5728 96.0944 55.4554C96.2199 55.338 96.3679 55.0425 96.4217 54.7987C96.4766 54.555 96.5775 54.1995 96.6481 54.0091C96.7647 53.6898 96.7524 53.3894 96.5786 52.3412C96.5383 52.0991 96.5629 51.9062 96.6425 51.8364C96.7232 51.7642 96.7625 51.4128 96.749 50.8727C96.7322 50.2021 96.7692 49.9649 96.9239 49.7458C97.0786 49.5258 97.0943 49.4273 96.9956 49.2697C96.8813 49.0858 96.8275 49.0743 96.2356 49.1145C95.5081 49.1638 95.3041 49.0842 95.3041 48.7501C95.3041 48.5695 95.3759 48.5038 95.6438 48.4349C95.9431 48.3586 95.9744 48.3216 95.9083 48.1197C95.8668 47.9933 95.7895 47.8488 95.7357 47.7988C95.6819 47.7479 95.6785 47.5632 95.7278 47.3883C95.8018 47.1224 95.8679 47.0649 96.1213 47.0436C96.3892 47.0206 96.4172 46.9911 96.3533 46.7974C96.3141 46.6759 96.2659 46.5642 96.248 46.5478C96.23 46.5322 96.2603 46.4304 96.3163 46.3229C96.3926 46.1785 96.3645 46.057 96.2098 45.8592C96.0944 45.7122 95.9677 45.4217 95.9285 45.2132C95.8881 45.0055 95.7323 44.7125 95.581 44.5631C95.2346 44.2191 95.127 43.812 95.3007 43.5034C95.4633 43.2169 96.452 42.8426 97.0461 42.8426C97.2613 42.8426 97.5247 42.8098 97.6312 42.7696C97.7388 42.7302 97.9776 42.6637 98.1625 42.6226C98.4282 42.5635 98.4932 42.5061 98.4742 42.346C98.4607 42.2352 98.5201 41.6648 98.6053 41.0779C98.6916 40.491 98.7578 39.9369 98.7544 39.8466C98.7365 39.4001 98.8979 37.9965 98.9864 37.8249C99.0425 37.7174 99.121 37.3562 99.1613 37.0222C99.2017 36.6881 99.2689 36.3745 99.3115 36.3253C99.353 36.2752 99.4494 35.9026 99.5256 35.4963C99.6018 35.09 99.7756 34.4497 99.9135 34.0738C100.15 33.427 100.153 33.3785 99.9751 33.1586C99.872 33.0305 99.7879 32.8294 99.7879 32.7112C99.7879 32.5922 99.6882 32.2844 99.566 32.0258C99.3104 31.4874 98.7891 31.1049 98.3105 31.1049C98.1132 31.1049 97.9574 31.0433 97.8778 30.9349C97.7063 30.7002 97.9103 30.5418 98.4674 30.4761C98.8956 30.426 99.5637 30.1035 99.5637 29.9475C99.5637 29.9056 99.4628 29.8088 99.3395 29.7316C99.2174 29.6545 99.0638 29.4747 98.9999 29.3327C98.8934 29.0963 98.9169 29.0471 99.2812 28.7557C99.5009 28.58 99.7711 28.3592 99.8821 28.264C99.9931 28.1688 100.149 28.0752 100.228 28.0555C100.318 28.0333 100.407 27.7871 100.462 27.4079C100.51 27.0705 100.583 26.6478 100.624 26.4672C100.678 26.2357 100.652 26.0913 100.538 25.9788C100.393 25.8368 100.398 25.7941 100.578 25.6094C100.735 25.4469 100.808 25.1227 100.903 24.1689C100.969 23.4917 101.097 22.4386 101.185 21.8296C101.273 21.2197 101.348 20.366 101.351 19.9326C101.356 19.2637 101.398 19.0888 101.626 18.7736C101.884 18.419 101.887 18.3952 101.7 18.2483C101.525 18.1104 101.514 17.9947 101.598 17.1509C101.65 16.6313 101.724 15.9853 101.764 15.7144C101.803 15.4435 101.848 14.6121 101.864 13.8672C101.893 12.5037 102.014 11.7732 102.315 11.1483C102.404 10.9619 102.478 10.6018 102.479 10.3478C102.479 10.0939 102.534 9.55373 102.599 9.14742C102.756 8.17803 102.751 7.48164 102.584 7.17745C102.494 7.01642 102.443 6.36303 102.434 5.28955C102.422 3.69765 102.415 3.64856 102.198 3.67072C101.181 3.77407 99.2555 3.81453 98.5291 3.74772C97.787 3.67959 97.6211 3.68772 97.3779 3.80444C97.1458 3.91566 97.0136 3.9251 96.6616 3.85566C96.4239 3.80879 96.1022 3.69674 95.9453 3.60662C95.6 3.40757 95.1875 3.40043 94.228 3.57699C93.5117 3.70873 93.4758 3.70733 92.3549 3.50065C90.6847 3.19276 89.539 3.09122 87.4014 3.06192C84.4454 3.02137 82.1553 2.90391 80.5636 2.7111C79.2016 2.54628 78.7252 2.53011 75.5765 2.54226C75.1427 2.54398 75.0104 2.58913 74.6192 2.87034C74.1831 3.18398 73.7594 3.28683 73.6137 3.11437C73.5061 2.9864 72.9377 3.01776 72.5712 3.17183C72.2708 3.29815 72.2147 3.29947 71.9804 3.18562C71.7529 3.07497 71.7249 3.0029 71.7518 2.58535L71.7809 2.11091L71.2967 2.16747C70.7519 2.23084 69.5547 2.23502 67.1951 2.182C66.2031 2.15967 65.572 2.17699 65.5294 2.22763C65.4868 2.27721 65.2559 2.28559 64.9409 2.24906C63.0453 2.02916 62.282 2.03154 61.2787 2.26055C60.5546 2.4257 60.3024 2.45254 60.1241 2.38277C59.5009 2.13841 59.4022 2.35749 59.7867 3.13046C59.9448 3.4482 59.9896 3.64257 59.9179 3.6956C59.7318 3.83136 59.4516 3.68952 59.3709 3.41898C59.3283 3.27804 59.1556 2.97639 58.9875 2.74869C58.7566 2.43563 58.6165 2.3327 58.4136 2.32687C58.2656 2.3226 57.8665 2.26112 57.528 2.19012C57.1121 2.1032 56.4127 2.05904 55.3803 2.05477C53.4455 2.04673 50.9406 1.91761 50.5365 1.80508C49.9192 1.63328 49.1382 1.72841 47.7756 2.14153C47.2864 2.28977 46.3375 2.53265 44.885 2.8815C44.2912 3.02408 44.1463 3.09771 43.9643 3.34929C43.6789 3.74402 43.2957 3.93166 42.6143 4.01055C42.3062 4.04617 42.0351 4.09 42.0118 4.10789C41.9886 4.12579 41.9343 4.4913 41.8912 4.92018L41.8129 5.69996L42.2525 6.02829C42.6604 6.33287 42.8115 6.56046 43.1789 7.42369C43.2558 7.60427 43.4388 7.86956 43.5855 8.01329C43.9156 8.33661 43.967 8.60379 43.7215 8.72068C43.5845 8.78585 43.49 8.7824 43.3669 8.70762C43.0554 8.51826 42.3867 7.60871 42.2726 7.21906C42.1099 6.66355 41.7667 6.34973 40.9393 5.99989C40.4239 5.78191 40.1222 5.58565 39.9023 5.32518C39.6091 4.97797 39.5915 4.90188 39.5807 3.93355C39.5743 3.37014 39.5869 2.77988 39.6089 2.62188L39.6487 2.33459L39.1047 2.28887C38.7579 2.25965 38.5222 2.1925 38.454 2.10336C38.3953 2.02653 38.1784 1.91195 37.9719 1.84883C37.7654 1.78562 37.5631 1.65675 37.5222 1.56228C37.4602 1.41945 37.3571 1.39064 36.9084 1.39064C36.475 1.39064 36.3366 1.35477 36.2031 1.20752L36.0371 1.02439L35.4118 1.24856C34.6867 1.50851 34.4052 1.51992 33.1063 1.34164C32.305 1.23173 32.0809 1.22763 31.7149 1.31603C31.3757 1.39803 31.2313 1.39983 31.0655 1.32399C30.9376 1.26547 30.4004 1.22648 29.7228 1.22648C27.9999 1.22648 25.3544 1.07142 24.8523 0.941076C24.266 0.788978 22.8514 0.6519 21.8672 0.6519C21.0522 0.6519 20.0882 0.787254 20.0882 0.901595C20.0882 1.04754 20.8527 1.52558 21.4333 1.74212C23.3995 2.47602 23.5923 2.58716 24.0978 3.27221C24.609 3.96548 24.6684 4.20762 24.3971 4.49155C24.2626 4.63289 24.1124 4.67393 23.7313 4.67393C23.4611 4.67393 23.2089 4.71087 23.1708 4.75602C23.1327 4.80116 23.015 4.8381 22.9085 4.8381C22.8031 4.8381 22.6294 4.91197 22.524 5.00226C22.4187 5.09255 22.2068 5.16643 22.0544 5.16643C21.7517 5.16643 21.5454 5.37114 21.5443 5.67405C21.5432 6.09499 21.3168 6.47743 21.0388 6.52861C20.8886 6.55613 20.0277 6.51718 19.1253 6.442C18.2229 6.36684 16.796 6.30663 15.9553 6.30821C15.1145 6.30978 14.3198 6.30793 14.1875 6.30408C14.0552 6.30024 13.6181 6.3936 13.2156 6.51155C12.8132 6.6295 12.3906 6.72624 12.2785 6.72654C11.7472 6.72794 10.6588 7.62222 10.4346 8.24137C10.2496 8.75389 10.1756 8.81717 9.72836 8.84484C9.34387 8.86872 9.31697 8.88727 9.36853 9.09108C9.75414 10.5967 9.80795 11.0182 9.68128 11.5213C9.51089 12.2003 9.51314 12.2255 9.76871 12.2255C10.0837 12.2255 10.1543 12.3669 9.8909 12.4702C9.67567 12.5548 9.66559 12.633 9.67568 14.1095C9.6824 14.9625 9.6555 15.698 9.61627 15.7439C9.57815 15.7899 9.52099 16.7068 9.49072 17.7812C9.46045 18.8565 9.41001 19.8842 9.3775 20.0648C9.10735 21.5792 8.78788 28.1728 8.97508 28.3444C9.07485 28.4355 8.98741 29.8211 8.78003 31.4332C8.72511 31.8616 8.70605 32.6931 8.73744 33.28C8.79685 34.3807 8.79012 34.4127 8.26776 35.534C7.95053 36.2145 7.91466 36.3876 8.13773 36.1734C8.26888 36.047 8.29466 36.0848 8.35183 36.4902C8.3877 36.7439 8.34735 37.3817 8.26328 37.907C8.1523 38.6006 8.13661 39.1546 8.20611 39.9262C8.25767 40.5115 8.28233 41.013 8.25879 41.0401C8.20947 41.0992 8.05926 42.7178 8.05366 43.253C8.05254 43.4558 8.10746 43.9409 8.17808 44.3299C8.28233 44.9111 8.2756 45.1302 8.13885 45.5571C8.04805 45.8427 7.99985 46.1702 8.03124 46.2859C8.16687 46.7825 8.20611 47.5935 8.09737 47.6428C8.02675 47.6748 7.97968 48.1804 7.97743 48.9413C7.97519 49.6275 7.90793 50.5764 7.82835 51.0508C7.74876 51.5244 7.67029 52.3354 7.65572 52.8534C7.64002 53.3705 7.57613 53.8646 7.51336 53.9508C7.45058 54.037 7.38333 54.8135 7.36427 55.6778C7.34522 56.5413 7.29701 57.3769 7.25778 57.5353C7.21743 57.6929 7.16811 58.2289 7.14681 58.7255C7.12663 59.2221 7.03471 60.0159 6.94392 60.4903C6.83855 61.0444 6.79819 61.7027 6.83294 62.3372C6.8632 62.8789 6.88675 63.5618 6.88675 63.8557C6.88675 64.1487 6.88787 65.6081 6.88899 67.0979C6.89011 68.5877 6.89123 69.9355 6.89123 70.0939C6.89123 72.1082 6.81164 74.5682 6.73429 74.8834C6.68161 75.1026 6.58521 75.971 6.52131 76.8124C6.33187 79.3036 6.31394 79.4538 6.17158 79.7419C6.07181 79.943 6.06733 80.0694 6.15589 80.2114C6.22202 80.3181 6.23771 80.4585 6.19175 80.5233C6.07966 80.6776 5.92609 81.766 5.94627 82.261C5.95523 82.4744 5.88237 82.9177 5.78597 83.246C5.68957 83.5735 5.59205 84.1932 5.56739 84.6225C5.54385 85.051 5.4508 85.6608 5.36113 85.9769C5.24231 86.3922 5.22213 86.7164 5.28827 87.1498C5.37346 87.7121 5.21765 88.931 5.01027 89.3168C4.9688 89.3907 4.92172 89.6698 4.90378 89.9324C4.86567 90.5234 4.73564 91.0323 4.58992 91.1719C4.52938 91.2211 4.359 91.2704 4.21327 91.2704C3.87475 91.2704 3.86354 91.4181 4.1987 91.4674C4.45092 91.5084 6.07405 91.6151 6.91701 91.6479C7.16362 91.6561 7.50663 91.689 7.67926 91.7218C8.05702 91.7957 8.17696 91.73 7.98192 91.5576C7.74427 91.3524 7.93035 91.3278 8.42245 91.5166C8.87083 91.6808 9.05803 91.689 14.2906 91.7136C17.2634 91.73 20.2003 91.7875 20.8168 91.8367C22.4355 91.9681 25.2558 92.0912 28.2151 92.1651C30.5552 92.2225 30.8708 92.2471 31.6339 92.4359C33.3899 92.8792 34.1667 92.9941 35.3263 92.9941C36.2685 92.9941 36.4769 93.0187 36.6458 93.15C36.7561 93.2321 36.9724 93.3306 37.1266 93.3635C37.2807 93.3963 39.021 93.4537 40.9939 93.4948C42.9667 93.5276 44.934 93.5933 45.3656 93.6425C47.2707 93.8559 48.0635 93.9791 48.7845 94.1514C49.2769 94.2664 49.6171 94.2828 52.6407 94.3402C53.9914 94.3649 55.1157 94.4059 55.1404 94.4223C55.165 94.4387 55.3657 94.4223 55.5865 94.3895C55.8073 94.3484 56.6245 94.3566 57.4025 94.3977C58.9886 94.488 64.3288 94.7178 66.2132 94.7753C66.8891 94.7917 67.5112 94.8491 67.5942 94.9066C67.6805 94.9559 68.4864 95.0215 69.4471 95.0543C70.382 95.0954 71.7025 95.1611 72.3806 95.2021C73.0588 95.2513 74.219 95.3252 74.9588 95.3745C75.6986 95.4237 76.4127 95.473 76.545 95.4976C76.6784 95.5222 77.5359 95.5797 78.4506 95.6207C79.3664 95.67 80.3416 95.7603 80.6196 95.8177C80.8965 95.8834 81.4514 95.9573 81.8527 95.9819C84.7705 96.1871 85.5272 96.2774 86.7602 96.5729C87.4373 96.737 88.2421 96.7288 88.2421 96.5565C88.2421 96.4908 88.2802 96.4415 88.3262 96.458C88.3721 96.4744 88.5358 96.5318 88.6905 96.5893C88.9292 96.6714 93.0207 96.9422 93.3424 96.893C93.4041 96.8848 93.468 96.696 93.4848 96.4744ZM4.50696 85.6436C4.50696 85.5328 4.45652 85.4434 4.39487 85.4434C4.33322 85.4434 4.28277 85.5558 4.28277 85.6937C4.28277 85.8406 4.32985 85.9244 4.39487 85.8948C4.45652 85.8669 4.50696 85.7536 4.50696 85.6436ZM3.94649 84.9509C3.94649 84.9057 3.89604 84.8688 3.83439 84.8688C3.77274 84.8688 3.7223 84.9057 3.7223 84.9509C3.7223 84.996 3.77274 85.0329 3.83439 85.0329C3.89604 85.0329 3.94649 84.996 3.94649 84.9509ZM4.50809 84.7662C4.6 84.6644 4.72779 84.3968 4.79169 84.1711C4.99794 83.4488 4.77823 83.1927 4.27156 83.5629C4.08773 83.6975 4.05298 83.7919 4.11239 83.9938C4.15499 84.1366 4.18413 84.4099 4.17852 84.602C4.16732 84.9919 4.26035 85.0387 4.50809 84.7662ZM97.7702 84.7498C97.7702 84.7301 97.7198 84.6907 97.6581 84.6636C97.5965 84.6357 97.546 84.6513 97.546 84.6997C97.546 84.7473 97.5965 84.7867 97.6581 84.7867C97.7198 84.7867 97.7702 84.7703 97.7702 84.7498ZM4.60785 82.8988C4.72219 82.8988 5.09322 82.0107 5.017 81.9196C4.98225 81.8785 5.00691 81.7431 5.0708 81.6191C5.3062 81.166 5.09547 81.1201 4.55853 81.5059C4.07428 81.8539 4.05858 81.8818 4.05858 82.3686C4.05858 82.9004 4.11911 83.0121 4.37021 82.9423C4.4554 82.9177 4.56189 82.8988 4.60785 82.8988ZM97.6581 79.7797C97.6581 79.7345 97.6077 79.6976 97.546 79.6976C97.4844 79.6976 97.4339 79.7345 97.4339 79.7797C97.4339 79.8248 97.4844 79.8618 97.546 79.8618C97.6077 79.8618 97.6581 79.8248 97.6581 79.7797ZM98.1569 77.9665C98.1199 77.9238 98.0426 77.9107 97.9843 77.9369C97.926 77.9632 97.9081 78.0198 97.944 78.0625C97.9798 78.1052 98.0572 78.1183 98.1155 78.0921C98.1737 78.0658 98.1928 78.0092 98.1569 77.9665ZM97.6581 77.2351C97.6581 77.19 97.6357 77.153 97.6088 77.153C97.5819 77.153 97.5281 77.19 97.49 77.2351C97.4519 77.2803 97.4743 77.3172 97.5393 77.3172C97.6043 77.3172 97.6581 77.2803 97.6581 77.2351ZM7.28805 37.7675C7.30822 37.6222 7.27123 37.5073 7.20397 37.5073C7.13896 37.5073 7.08403 37.5532 7.08291 37.6099C7.08291 37.6657 7.04928 37.8003 7.01005 37.9078C6.95737 38.0539 6.97866 38.0942 7.09636 38.0654C7.18268 38.0449 7.26899 37.9103 7.28805 37.7675ZM20.8987 5.78164C21.0433 5.63812 20.9951 5.2481 20.8336 5.2481C20.6476 5.2481 19.9514 5.58584 19.8999 5.70081C19.8797 5.74664 20.0008 5.84555 20.17 5.9206C20.4772 6.05726 20.6565 6.02308 20.8987 5.78164ZM40.7137 5.25483C40.7137 5.21338 40.6815 5.11792 40.6421 5.04273C40.5887 4.94087 40.5485 4.932 40.4843 5.00809C40.4369 5.06415 40.4241 5.15962 40.4559 5.22011C40.5209 5.34438 40.7137 5.37024 40.7137 5.25483ZM16.036 4.16806C16.1839 4.12817 17.3262 4.12423 18.6142 4.15928C21.4132 4.2352 22.6597 4.21862 22.8177 4.1033C22.8816 4.05577 23.0767 4.01687 23.2493 4.01687C23.5239 4.01687 23.5632 3.986 23.5632 3.76651C23.5632 3.4812 23.3457 3.13571 23.0419 2.93658C22.7146 2.72177 21.7752 2.38113 21.1374 2.24536C20.6812 2.14818 20.448 2.0322 20.0725 1.71454C19.808 1.49103 19.5288 1.30815 19.4515 1.30815C19.3753 1.30815 19.1724 1.43743 18.9998 1.59544C18.8283 1.75345 18.6556 1.88272 18.6175 1.88272C18.5783 1.88272 18.2005 2.12626 17.7768 2.42398C17.352 2.72169 16.8543 3.02285 16.6693 3.09311C16.3487 3.21492 15.879 3.48546 14.9565 4.08007L14.5395 4.3484L15.156 4.29414C15.4945 4.26426 15.8914 4.20754 16.036 4.16806ZM95.0799 2.90547C95.0799 2.81354 94.9645 2.77972 94.6596 2.78161C94.4286 2.783 94.0251 2.76216 93.7628 2.73523C93.3772 2.69567 93.2864 2.71085 93.2864 2.81395C93.2864 2.91122 93.44 2.94865 93.9309 2.97122C94.2852 2.98755 94.6887 3.00783 94.8277 3.01636C94.9891 3.0263 95.0799 2.9864 95.0799 2.90547ZM98.2186 78.9232C98.2186 78.8535 98.269 78.796 98.3307 78.796C98.3923 78.796 98.4428 78.8305 98.4428 78.8732C98.4428 78.915 98.3923 78.9733 98.3307 79.0012C98.269 79.0283 98.2186 78.9938 98.2186 78.9232ZM97.5135 48.2819C97.731 47.8469 98.3677 47.4348 98.5807 47.5908C98.7342 47.7032 97.9271 48.4255 97.648 48.4255C97.4978 48.4255 97.4608 48.3853 97.5135 48.2819ZM90.9974 2.38761C90.5771 2.32096 90.4762 2.13053 90.8607 2.13053C91.0523 2.13053 91.2989 2.00995 91.6184 1.7596C92.1318 1.35896 92.4266 1.36643 92.1172 1.77224C91.7159 2.29905 91.5299 2.47035 91.3808 2.44786C91.3494 2.44326 91.1779 2.4161 90.9974 2.38761ZM60.6667 1.74064C60.6678 1.64797 61.3348 1.14554 61.4569 1.14554C61.6509 1.14554 61.5668 1.36487 61.2888 1.58501C61.0321 1.78792 60.6656 1.87952 60.6667 1.74064ZM57.7522 1.39179C57.7522 1.34665 57.8273 1.30971 57.9203 1.30971C58.0123 1.30971 58.0885 1.34665 58.0885 1.39179C58.0885 1.43694 58.0123 1.47387 57.9203 1.47387C57.8273 1.47387 57.7522 1.43694 57.7522 1.39179Z" fill="#FF8A7A"/>
<path d="M90.1505 98.3816C90.1661 98.1599 90.2087 97.6839 90.2435 97.3227C90.2782 96.9615 90.2637 96.428 90.211 96.1325C90.1583 95.837 90.1516 95.3938 90.1953 95.1475C90.239 94.9013 90.3298 94.2692 90.3948 93.7521C90.461 93.235 90.5652 92.6112 90.6257 92.3814C90.98 91.0024 91.1616 90.1528 91.3062 89.2015C91.4048 88.5563 91.4866 88.3314 91.7007 88.127C91.8543 87.9785 91.9698 87.756 91.9698 87.6066C91.9698 87.4622 92.0482 87.2561 92.1446 87.1486C92.241 87.0403 92.3643 86.7185 92.417 86.4328C92.5325 85.8189 92.8609 83.2407 92.9248 82.4469C93.2701 78.2148 93.2678 78.3527 92.9786 78.2977C92.6894 78.2418 92.6838 77.9931 92.9719 77.9931C93.0918 77.9931 93.2174 77.9595 93.2521 77.9184C93.3362 77.8191 93.4662 75.1071 93.455 73.7052C93.4494 73.0789 93.3866 72.4477 93.3127 72.2843C93.2017 72.0372 93.2095 71.9675 93.3597 71.8452C93.6019 71.6498 93.5974 71.1319 93.3541 71.0629C93.1815 71.0153 93.1815 71.0038 93.3541 70.9111C93.5649 70.797 93.5615 70.4448 93.3216 67.897C93.2398 67.0343 93.2163 65.9517 93.2622 65.1883C93.3642 63.4695 93.3407 62.569 93.1434 60.5917C93.0268 59.4171 92.9584 59.3145 92.7152 59.9506C92.6065 60.2354 92.389 60.6705 92.2321 60.9184L91.9462 61.3682L91.7467 61.1876C91.5113 60.9742 91.5494 60.3914 91.8285 59.9367C91.9249 59.7791 92.0404 59.3834 92.0841 59.0567C92.1278 58.7301 92.2455 58.3705 92.3464 58.2573C92.4473 58.1448 92.5302 57.9453 92.5302 57.8148C92.5302 57.6835 92.6334 57.4799 92.76 57.3626C92.8856 57.2452 93.0335 56.9497 93.0873 56.7059C93.1423 56.4621 93.2432 56.1067 93.3138 55.9163C93.4304 55.597 93.418 55.2966 93.2443 54.2484C93.2039 54.0062 93.2286 53.8133 93.3082 53.7436C93.3889 53.6713 93.4281 53.32 93.4147 52.7799C93.3979 52.1093 93.4348 51.8721 93.5895 51.6529C93.7442 51.4329 93.7599 51.3344 93.6613 51.1768C93.5469 50.993 93.4931 50.9815 92.9013 51.0217C92.1738 51.071 91.9698 50.9913 91.9698 50.6573C91.9698 50.4767 92.0415 50.411 92.3094 50.3421C92.6087 50.2657 92.6401 50.2288 92.574 50.0269C92.5325 49.9005 92.4551 49.756 92.4013 49.7059C92.3475 49.655 92.3442 49.4703 92.3935 49.2955C92.4675 49.0296 92.5336 48.9721 92.7869 48.9508C93.0548 48.9278 93.0829 48.8982 93.019 48.7045C92.9797 48.583 92.9315 48.4714 92.9136 48.455C92.8957 48.4394 92.9259 48.3376 92.982 48.2301C93.0582 48.0856 93.0302 47.9641 92.8755 47.7663C92.76 47.6194 92.6334 47.3288 92.5941 47.1203C92.5538 46.9127 92.398 46.6196 92.2466 46.4702C91.9003 46.1263 91.7926 45.7192 91.9664 45.4106C92.1289 45.1241 93.1176 44.7498 93.7117 44.7498C93.9269 44.7498 94.1904 44.717 94.2969 44.6767C94.4045 44.6373 94.6432 44.5709 94.8282 44.5298C95.0938 44.4707 95.1589 44.4133 95.1398 44.2532C95.1264 44.1424 95.1858 43.5719 95.271 42.985C95.3573 42.3981 95.4234 41.8441 95.4201 41.7538C95.4021 41.3073 95.5635 39.9037 95.6521 39.7321C95.7081 39.6246 95.7866 39.2634 95.827 38.9293C95.8673 38.5953 95.9346 38.2817 95.9772 38.2325C96.0186 38.1824 96.115 37.8097 96.1913 37.4034C96.2675 36.9971 96.4412 36.3569 96.5791 35.9809C96.8156 35.3341 96.819 35.2857 96.6408 35.0657C96.5376 34.9377 96.4536 34.7366 96.4536 34.6184C96.4536 34.4994 96.3538 34.1915 96.2316 33.933C95.976 33.3945 95.4548 33.012 94.9762 33.012C94.7789 33.012 94.6231 32.9505 94.5435 32.8421C94.372 32.6074 94.576 32.4489 95.1331 32.3833C95.5613 32.3332 96.2294 32.0106 96.2294 31.8547C96.2294 31.8128 96.1285 31.7159 96.0052 31.6388C95.883 31.5616 95.7294 31.3819 95.6655 31.2399C95.559 31.0035 95.5826 30.9542 95.9469 30.6628C96.1666 30.4872 96.4368 30.2664 96.5477 30.1712C96.6587 30.0759 96.8145 29.9824 96.8941 29.9627C96.9838 29.9405 97.0723 29.6943 97.1273 29.315C97.1755 28.9777 97.2483 28.555 97.2898 28.3744C97.3436 28.1429 97.3178 27.9984 97.2035 27.886C97.0589 27.744 97.0634 27.7013 97.2438 27.5166C97.4008 27.3541 97.4736 27.0299 97.5689 26.0761C97.6351 25.3989 97.7628 24.3458 97.8503 23.7367C97.9388 23.1268 98.0139 22.2732 98.0162 21.8398C98.0218 21.1708 98.0633 20.996 98.2919 20.6808C98.5497 20.3262 98.5531 20.3024 98.3659 20.1555C98.191 20.0176 98.1798 19.9018 98.2639 19.058C98.3155 18.5384 98.3895 17.8925 98.4298 17.6216C98.469 17.3507 98.5139 16.5192 98.5296 15.7743C98.5587 14.4109 98.6798 13.6803 98.9802 13.0554C99.0699 12.8691 99.1439 12.5089 99.145 12.255C99.145 12.0011 99.1999 11.4609 99.2649 11.0546C99.4218 10.0852 99.4162 9.38881 99.2492 9.08461C99.1595 8.92359 99.1091 8.2702 99.1001 7.19672C99.0878 5.60481 99.0811 5.55573 98.8636 5.57789C97.8469 5.68123 95.9211 5.7217 95.1947 5.65488C94.4527 5.58675 94.2868 5.59488 94.0435 5.7116C93.8115 5.82282 93.6792 5.83226 93.3272 5.76282C93.0896 5.71595 92.7679 5.60391 92.6109 5.51378C92.2657 5.31473 91.8532 5.30759 90.8936 5.48415C90.1774 5.61589 90.1415 5.6145 89.0205 5.40782C87.3503 5.09992 86.2047 4.99839 84.067 4.96909C81.1111 4.92854 78.821 4.81108 77.2292 4.61827C75.8673 4.45344 75.3909 4.43727 72.2421 4.44942C71.8083 4.45115 71.676 4.49629 71.2848 4.77751C70.8488 5.09114 70.425 5.19399 70.2793 5.02154C70.1717 4.89357 69.6034 4.92493 69.2368 5.07899C68.9364 5.20532 68.8804 5.20663 68.6461 5.09278C68.4185 4.98214 68.3905 4.91007 68.4174 4.49252L68.4466 4.01808L67.9623 4.07463C67.4175 4.138 66.2204 4.14219 63.8608 4.08916C62.8687 4.06684 62.2376 4.08416 62.195 4.1348C62.1524 4.18438 61.9215 4.19275 61.6065 4.15622C59.711 3.93633 58.9476 3.93871 57.9444 4.16772C57.2202 4.33287 56.968 4.35971 56.7898 4.28994C56.1665 4.04558 56.0679 4.26465 56.4524 5.03762C56.6104 5.35536 56.6553 5.54974 56.5835 5.60276C56.3975 5.73852 56.1172 5.59669 56.0365 5.32614C55.9939 5.18521 55.8213 4.88356 55.6531 4.65586C55.4222 4.3428 55.2821 4.23987 55.0792 4.23404C54.9312 4.22977 54.5322 4.16829 54.1937 4.09729C53.7778 4.01036 53.0783 3.9662 52.0459 3.96194C50.1112 3.95389 47.6063 3.82478 47.2022 3.71224C46.5849 3.54044 45.8039 3.63558 44.4413 4.0487C43.9521 4.19694 43.0032 4.43982 41.5507 4.78867C40.9569 4.93125 40.812 5.00487 40.6299 5.25646C40.3445 5.65119 39.9614 5.83883 39.28 5.91771C38.9718 5.95333 38.7007 5.99717 38.6775 6.01506C38.6542 6.03295 38.6 6.39847 38.5569 6.82735L38.4785 7.60713L38.9182 7.93546C39.326 8.24003 39.4771 8.46762 39.8446 9.33086C39.9215 9.51144 40.1044 9.77673 40.2511 9.92046C40.5813 10.2438 40.6326 10.511 40.3871 10.6278C40.2501 10.693 40.1556 10.6896 40.0326 10.6148C39.721 10.4254 39.0524 9.51587 38.9383 9.12623C38.7755 8.57072 38.4324 8.25689 37.605 7.90706C37.0895 7.68907 36.7879 7.49281 36.5679 7.23234C36.2748 6.88513 36.2572 6.80904 36.2463 5.84072C36.2399 5.2773 36.2526 4.68705 36.2746 4.52904L36.3144 4.24175L35.7704 4.19603C35.4235 4.16681 35.1878 4.09967 35.1196 4.01053C35.0609 3.9337 34.844 3.81911 34.6375 3.75599C34.431 3.69279 34.2287 3.56392 34.1878 3.46944C34.1258 3.32662 34.0228 3.29781 33.5741 3.29781C33.1406 3.29781 33.0023 3.26194 32.8688 3.11468L32.7028 2.93156L32.0775 3.15572C31.3523 3.41568 31.0709 3.42709 29.7719 3.2488C28.9707 3.1389 28.7466 3.13479 28.3806 3.22319C28.0414 3.30519 27.8969 3.307 27.7311 3.23116C27.6032 3.17263 27.0661 3.13364 26.3884 3.13364C24.6655 3.13364 22.0201 2.97859 21.5179 2.84824C20.9316 2.69614 19.517 2.55907 18.5328 2.55907C17.7179 2.55907 16.7539 2.69442 16.7539 2.80876C16.7539 2.9547 17.5183 3.43275 18.099 3.64928C20.0651 4.38318 20.2579 4.49432 20.7635 5.17938C21.2747 5.87265 21.3341 6.11479 21.0628 6.39871C20.9283 6.54006 20.7781 6.5811 20.3969 6.5811C20.1268 6.5811 19.8746 6.61804 19.8365 6.66318C19.7984 6.70833 19.6807 6.74526 19.5742 6.74526C19.4688 6.74526 19.2951 6.81914 19.1897 6.90943C19.0843 6.99972 18.8725 7.07359 18.72 7.07359C18.4173 7.07359 18.2111 7.27831 18.21 7.58122C18.2088 8.00216 17.9824 8.3846 17.7044 8.43578C17.5542 8.4633 16.6933 8.42434 15.791 8.34917C14.8886 8.274 13.4616 8.21379 12.6209 8.21538C11.7802 8.21695 10.9854 8.21509 10.8532 8.21125C10.7209 8.2074 10.2837 8.30076 9.88129 8.41871C9.47887 8.53667 9.05627 8.63341 8.94418 8.6337C8.41285 8.63511 7.3244 9.52939 7.10021 10.1485C6.91525 10.6611 6.84127 10.7243 6.39401 10.752C6.00952 10.7759 5.98262 10.7944 6.03418 10.9982C6.41979 12.5039 6.4736 12.9254 6.34693 13.4285C6.17654 14.1074 6.17879 14.1326 6.43436 14.1326C6.74935 14.1326 6.81997 14.2741 6.55655 14.3774C6.34132 14.462 6.33124 14.5402 6.34133 16.0167C6.34805 16.8697 6.32115 17.6051 6.28192 17.6511C6.2438 17.6971 6.18663 18.6139 6.15637 19.6884C6.1261 20.7637 6.07566 21.7913 6.04315 21.9719C5.773 23.4863 5.45353 30.08 5.64073 30.2516C5.74049 30.3427 5.65306 31.7282 5.44568 33.3403C5.39076 33.7688 5.3717 34.6003 5.40309 35.1872C5.4625 36.2879 5.45577 36.3199 4.93341 37.4412C4.61618 38.1216 4.58031 38.2948 4.80338 38.0806C4.93453 37.9542 4.96031 37.9919 5.01748 38.3974C5.05335 38.651 5.013 39.2888 4.92892 39.8142C4.81795 40.5078 4.80226 41.0618 4.87175 41.8334C4.92332 42.4186 4.94798 42.9202 4.92444 42.9472C4.87512 43.0063 4.72491 44.625 4.71931 45.1602C4.71819 45.3629 4.77311 45.848 4.84373 46.2371C4.94798 46.8182 4.94125 47.0374 4.8045 47.4642C4.7137 47.7499 4.6655 48.0774 4.69689 48.1931C4.83252 48.6897 4.87175 49.5007 4.76302 49.5499C4.6924 49.5819 4.64533 50.0876 4.64308 50.8485C4.64084 51.5347 4.57358 52.4836 4.49399 52.958C4.41441 53.4316 4.33594 54.2426 4.32137 54.7605C4.30567 55.2776 4.24178 55.7718 4.17901 55.858C4.11623 55.9442 4.04898 56.7207 4.02992 57.585C4.01087 58.4485 3.96266 59.2841 3.92343 59.4425C3.88308 59.6001 3.83376 60.1361 3.81246 60.6327C3.79228 61.1293 3.70036 61.923 3.60956 62.3975C3.5042 62.9515 3.46384 63.6098 3.49859 64.2443C3.52885 64.7861 3.5524 65.469 3.5524 65.7628C3.5524 66.0559 3.55351 67.5153 3.55464 69.0051C3.55576 70.4949 3.55688 71.8427 3.55688 72.0011C3.55688 74.0154 3.47729 76.4754 3.39994 76.7906C3.34726 77.0098 3.25086 77.8782 3.18696 78.7195C2.99752 81.2107 2.97959 81.3609 2.83723 81.6491C2.73746 81.8502 2.73298 81.9766 2.82154 82.1186C2.88767 82.2253 2.90336 82.3656 2.8574 82.4305C2.74531 82.5848 2.59174 83.6732 2.61191 84.1682C2.62088 84.3816 2.54802 84.8248 2.45162 85.1531C2.35522 85.4807 2.2577 86.1004 2.23304 86.5297C2.2095 86.9581 2.11645 87.568 2.02678 87.884C1.90796 88.2994 1.88778 88.6236 1.95392 89.057C2.03911 89.6193 1.8833 90.8382 1.67592 91.224C1.63445 91.2978 1.58737 91.5769 1.56943 91.8396C1.53132 92.4306 1.40129 92.9395 1.25557 93.079C1.19503 93.1283 1.02465 93.1775 0.878923 93.1775C0.540396 93.1775 0.529186 93.3253 0.86435 93.3745C1.11656 93.4156 2.7397 93.5223 3.58266 93.5551C3.82927 93.5633 4.17228 93.5961 4.34491 93.629C4.72267 93.7028 4.84261 93.6372 4.64756 93.4648C4.40992 93.2596 4.596 93.235 5.0881 93.4238C5.53648 93.5879 5.72368 93.5961 10.9563 93.6208C13.9291 93.6372 16.8659 93.6946 17.4825 93.7439C19.1011 93.8752 21.9214 93.9983 24.8808 94.0722C27.2209 94.1297 27.5364 94.1543 28.2996 94.3431C30.0555 94.7863 30.8323 94.9012 31.992 94.9012C32.9341 94.9012 33.1425 94.9259 33.3114 95.0572C33.4217 95.1393 33.6381 95.2378 33.7922 95.2706C33.9463 95.3035 35.6866 95.3609 37.6595 95.4019C39.6324 95.4348 41.5997 95.5005 42.0312 95.5497C43.9364 95.7631 44.7291 95.8862 45.4501 96.0586C45.9426 96.1735 46.2828 96.1899 49.3063 96.2474C50.6571 96.272 51.7814 96.3131 51.806 96.3295C51.8307 96.3459 52.0313 96.3295 52.2522 96.2966C52.473 96.2556 53.2902 96.2638 54.0681 96.3049C55.6543 96.3951 60.9945 96.625 62.8788 96.6824C63.5547 96.6988 64.1769 96.7563 64.2598 96.8138C64.3461 96.863 65.1521 96.9287 66.1127 96.9615C67.0476 97.0026 68.3681 97.0682 69.0463 97.1093C69.7245 97.1585 70.8846 97.2324 71.6245 97.2816C72.3643 97.3309 73.0783 97.3801 73.2106 97.4048C73.344 97.4294 74.2015 97.4868 75.1162 97.5279C76.0321 97.5771 77.0073 97.6674 77.2853 97.7249C77.5622 97.7905 78.117 97.8644 78.5183 97.889C81.4362 98.0943 82.1928 98.1845 83.4259 98.48C84.1029 98.6442 84.9078 98.636 84.9078 98.4636C84.9078 98.398 84.9459 98.3487 84.9918 98.3651C85.0378 98.3815 85.2014 98.439 85.3561 98.4965C85.5949 98.5785 89.6864 98.8494 90.0081 98.8002C90.0697 98.7919 90.1336 98.6032 90.1505 98.3816ZM1.17261 87.5508C1.17261 87.44 1.12217 87.3505 1.06052 87.3505C0.998865 87.3505 0.948422 87.463 0.948422 87.6009C0.948422 87.7478 0.995502 87.8315 1.06052 87.802C1.12217 87.7741 1.17261 87.6608 1.17261 87.5508ZM0.612136 86.858C0.612136 86.8129 0.561693 86.7759 0.500041 86.7759C0.438388 86.7759 0.387945 86.8129 0.387945 86.858C0.387945 86.9032 0.438388 86.9401 0.500041 86.9401C0.561693 86.9401 0.612136 86.9032 0.612136 86.858ZM1.17373 86.6733C1.26565 86.5716 1.39344 86.304 1.45734 86.0782C1.66359 85.3559 1.44388 85.0998 0.937212 85.47C0.753376 85.6046 0.718628 85.699 0.778038 85.9009C0.820635 86.0438 0.849779 86.3171 0.844174 86.5092C0.832965 86.8991 0.926004 86.9459 1.17373 86.6733ZM94.4359 86.6569C94.4359 86.6372 94.3854 86.5978 94.3238 86.5707C94.2621 86.5428 94.2117 86.5584 94.2117 86.6069C94.2117 86.6545 94.2621 86.6939 94.3238 86.6939C94.3854 86.6939 94.4359 86.6775 94.4359 86.6569ZM1.2735 84.806C1.38783 84.806 1.75887 83.9178 1.68265 83.8267C1.6479 83.7857 1.67256 83.6503 1.73645 83.5263C1.97185 83.0732 1.76111 83.0272 1.22418 83.413C0.739927 83.7611 0.724231 83.789 0.724231 84.2757C0.724231 84.8076 0.784763 84.9192 1.03586 84.8495C1.12105 84.8248 1.22754 84.806 1.2735 84.806ZM94.3238 81.6868C94.3238 81.6417 94.2733 81.6048 94.2117 81.6048C94.15 81.6048 94.0996 81.6417 94.0996 81.6868C94.0996 81.732 94.15 81.7689 94.2117 81.7689C94.2733 81.7689 94.3238 81.732 94.3238 81.6868ZM94.8226 79.8736C94.7856 79.831 94.7082 79.8178 94.65 79.8441C94.5917 79.8704 94.5737 79.927 94.6096 79.9697C94.6455 80.0124 94.7228 80.0255 94.7811 79.9992C94.8394 79.973 94.8585 79.9163 94.8226 79.8736ZM94.3238 79.1423C94.3238 79.0971 94.3013 79.0602 94.2744 79.0602C94.2475 79.0602 94.1937 79.0971 94.1556 79.1423C94.1175 79.1874 94.1399 79.2244 94.2049 79.2244C94.27 79.2244 94.3238 79.1874 94.3238 79.1423ZM3.95369 39.6746C3.97387 39.5294 3.93688 39.4144 3.86962 39.4144C3.80461 39.4144 3.74968 39.4604 3.74856 39.517C3.74856 39.5729 3.71493 39.7075 3.6757 39.815C3.62302 39.9611 3.64431 40.0013 3.76201 39.9726C3.84833 39.9521 3.93464 39.8175 3.95369 39.6746ZM17.5643 7.6888C17.7089 7.54529 17.6607 7.15527 17.4993 7.15527C17.3132 7.15527 16.6171 7.49301 16.5655 7.60797C16.5454 7.65381 16.6664 7.75272 16.8357 7.82777C17.1428 7.96443 17.3222 7.93025 17.5643 7.6888ZM37.3794 7.162C37.3794 7.12055 37.3471 7.02508 37.3077 6.9499C37.2543 6.84803 37.2141 6.83917 37.15 6.91526C37.1026 6.97132 37.0898 7.06678 37.1215 7.12728C37.1866 7.25155 37.3794 7.2774 37.3794 7.162ZM12.7016 6.07523C12.8496 6.03533 13.9918 6.03139 15.2798 6.06644C18.0788 6.14237 19.3253 6.12579 19.4834 6.01046C19.5473 5.96294 19.7423 5.92403 19.9149 5.92403C20.1896 5.92403 20.2288 5.89317 20.2288 5.67368C20.2288 5.38836 20.0113 5.04288 19.7076 4.84375C19.3802 4.62894 18.4409 4.28829 17.8031 4.15253C17.3468 4.05534 17.1137 3.93936 16.7382 3.6217C16.4736 3.39819 16.1945 3.21531 16.1172 3.21531C16.0409 3.21531 15.838 3.34459 15.6654 3.5026C15.4939 3.66061 15.3213 3.78989 15.2832 3.78989C15.2439 3.78989 14.8662 4.03343 14.4424 4.33114C14.0176 4.62885 13.5199 4.93001 13.3349 5.00028C13.0144 5.12209 12.5447 5.39263 11.6221 5.98723L11.2051 6.25556L11.8217 6.20131C12.1602 6.17143 12.557 6.11471 12.7016 6.07523ZM91.7456 4.81264C91.7456 4.7207 91.6301 4.68689 91.3252 4.68877C91.0943 4.69017 90.6907 4.66932 90.4284 4.6424C90.0428 4.60283 89.952 4.61802 89.952 4.72111C89.952 4.81838 90.1056 4.85581 90.5966 4.87838C90.9508 4.89472 91.3544 4.91499 91.4934 4.92353C91.6548 4.93346 91.7456 4.89357 91.7456 4.81264ZM94.8842 80.8304C94.8842 80.7606 94.9347 80.7032 94.9963 80.7032C95.058 80.7032 95.1084 80.7376 95.1084 80.7803C95.1084 80.8222 95.058 80.8805 94.9963 80.9084C94.9347 80.9355 94.8842 80.901 94.8842 80.8304ZM94.1792 50.1891C94.3966 49.754 95.0333 49.342 95.2463 49.4979C95.3999 49.6104 94.5928 50.3327 94.3137 50.3327C94.1635 50.3327 94.1265 50.2925 94.1792 50.1891ZM87.6631 4.29478C87.2427 4.22813 87.1418 4.0377 87.5263 4.0377C87.718 4.0377 87.9646 3.91712 88.2841 3.66677C88.7975 3.26612 89.0923 3.27359 88.7829 3.67941C88.3816 4.20621 88.1955 4.37752 88.0464 4.35503C88.015 4.35043 87.8435 4.32326 87.6631 4.29478ZM57.3323 3.64781C57.3334 3.55514 58.0004 3.05271 58.1226 3.05271C58.3165 3.05271 58.2324 3.27203 57.9545 3.49218C57.6978 3.69509 57.3312 3.78669 57.3323 3.64781ZM54.4179 3.29896C54.4179 3.25381 54.493 3.21687 54.586 3.21687C54.6779 3.21687 54.7541 3.25381 54.7541 3.29896C54.7541 3.3441 54.6779 3.38104 54.586 3.38104C54.493 3.38104 54.4179 3.3441 54.4179 3.29896Z" fill="#FF8A7A" fill-opacity="0.31"/>
<path d="M20.9844 43.6133L20.8086 40.6953C20.8086 40.2031 20.7969 39.6758 20.7734 39.1133C20.6797 37.707 20.7734 36.9219 21.0547 36.7578C21.3125 36.6172 21.4883 36.4648 21.582 36.3008C21.6992 36.1367 21.8164 36.0547 21.9336 36.0547C22.0742 36.0547 22.2734 36.0547 22.5312 36.0547C22.8125 36.0312 23.1055 36.0312 23.4102 36.0547C24.1367 36.1016 24.6172 36.207 24.8516 36.3711C25.1094 36.5352 25.3906 36.6406 25.6953 36.6875C26 36.7344 26.3047 36.7695 26.6094 36.793C26.9375 36.793 27.2422 36.793 27.5234 36.793C27.8047 36.7695 28.0508 36.7578 28.2617 36.7578C28.4961 36.7578 28.6484 36.7812 28.7188 36.8281C29 36.9453 29.2344 36.9922 29.4219 36.9688C29.6328 36.9453 29.832 37.0391 30.0195 37.25C30.207 37.4375 30.3359 37.5898 30.4062 37.707C30.4766 37.8008 30.6992 37.8711 31.0742 37.918C31.4727 37.9648 31.8008 38.0117 32.0586 38.0586C32.3164 38.082 32.5742 38.1875 32.832 38.375C33.0898 38.5625 33.3008 38.6797 33.4648 38.7266C33.6289 38.7734 33.8047 38.9258 33.9922 39.1836C34.2031 39.4414 34.3438 39.6289 34.4141 39.7461C34.4844 39.8633 34.5312 40.0625 34.5547 40.3438C34.5781 41 34.7422 41.4805 35.0469 41.7852C35.3516 42.0898 35.5156 42.3828 35.5391 42.6641C35.5859 42.9453 35.6211 43.2734 35.6445 43.6484C35.668 44.0234 35.7031 44.4922 35.75 45.0547C35.8203 45.5938 35.7031 46.2031 35.3984 46.8828C35.1172 47.5391 34.8242 47.9961 34.5195 48.2539C34.2383 48.5117 34.0039 48.8281 33.8164 49.2031C33.6289 49.5547 33.4883 49.9648 33.3945 50.4336C33.3242 50.8789 33.0781 51.3359 32.6562 51.8047C32.3984 52.1328 32.1875 52.332 32.0234 52.4023C31.8828 52.4727 31.7422 52.5547 31.6016 52.6484C31.4609 52.7188 31.2969 52.8242 31.1094 52.9648C30.9219 53.082 30.7109 53.1875 30.4766 53.2812C29.8906 53.5625 29.3867 53.6211 28.9648 53.457C28.707 53.5742 28.4492 53.6562 28.1914 53.7031C27.957 53.7266 27.7109 53.7734 27.4531 53.8438C26.9141 54.0312 26.6094 54.3477 26.5391 54.793C26.4922 55.2383 26.5391 55.6953 26.6797 56.1641C26.8438 56.6328 26.9375 57.0312 26.9609 57.3594C27.0781 58.4141 26.8203 59.3281 26.1875 60.1016C25.7891 60.5703 25.5312 61.0742 25.4141 61.6133C25.2969 62.1289 25.0859 62.4805 24.7812 62.668C24.2656 63.1367 23.7734 63.0312 23.3047 62.3516C23.2344 62.2812 23.082 62.1875 22.8477 62.0703C22.5195 61.8828 22.3086 61.5898 22.2148 61.1914C22.1445 60.7695 22.1094 60.3477 22.1094 59.9258C22.1094 59.5039 22.0742 59.1055 22.0039 58.7305C21.9336 58.3555 21.8516 57.957 21.7578 57.5352C21.5469 56.3867 21.4414 55.6016 21.4414 55.1797C21.4414 54.7578 21.4297 54.3242 21.4062 53.8789C21.4062 53.4336 21.4648 53.0352 21.582 52.6836C21.7227 52.332 21.7812 52.0977 21.7578 51.9805C21.7344 51.8633 21.7578 51.7344 21.8281 51.5938C21.8984 51.4297 21.9805 51.2422 22.0742 51.0312C22.168 50.7969 22.2383 50.5625 22.2852 50.3281C22.3789 49.8359 22.2383 49.4141 21.8633 49.0625C21.4414 48.6641 21.2305 48.2422 21.2305 47.7969V47.5859C21.3008 46.7891 21.3125 46.25 21.2656 45.9688C21.0781 45.1719 20.9844 44.3867 20.9844 43.6133ZM26.6094 45.2305C26.6562 45.3242 26.6914 45.4648 26.7148 45.6523C26.7617 45.8164 26.7969 46.0625 26.8203 46.3906C26.8672 46.7188 26.8672 47.0703 26.8203 47.4453C26.7969 47.7969 26.7734 48.125 26.75 48.4297C26.7031 49.2031 26.7969 49.6367 27.0312 49.7305C27.2891 49.8477 27.7109 49.5312 28.2969 48.7812C28.9297 48.0078 29.457 47.0703 29.8789 45.9688C30.0898 45.3828 30.1016 44.9492 29.9141 44.668C29.5156 44.1992 29.3516 43.7773 29.4219 43.4023C29.4453 43.3789 29.4453 43.3203 29.4219 43.2266C29.375 43.1797 29.3164 43.1211 29.2461 43.0508C29.1758 42.957 29.0703 42.875 28.9297 42.8047C28.3906 42.5938 27.8984 42.5938 27.4531 42.8047C27.0312 42.9922 26.75 43.2734 26.6094 43.6484C26.4922 44.0234 26.4336 44.3164 26.4336 44.5273C26.457 44.7148 26.4805 44.8555 26.5039 44.9492C26.5273 45.0195 26.5625 45.1133 26.6094 45.2305ZM45.5234 42.5586C44.7266 42.7695 44.5742 44.1289 45.0664 46.6367C45.2305 47.3164 45.3125 47.8906 45.3125 48.3594C45.3359 48.8047 45.2773 49.2969 45.1367 49.8359C44.9961 50.375 44.9258 50.8086 44.9258 51.1367C44.9258 51.4648 44.8789 51.8516 44.7852 52.2969C44.8086 52.7891 44.7969 53.293 44.75 53.8086C44.7266 54.3008 44.7031 54.7812 44.6797 55.25C44.6094 56.3984 44.5977 57.0781 44.6445 57.2891C44.6914 57.5 44.7617 57.6406 44.8555 57.7109C44.9727 57.7578 45.1016 57.8047 45.2422 57.8516C45.5703 57.9688 45.7695 58.1211 45.8398 58.3086C45.9102 58.4961 45.9336 58.7656 45.9102 59.1172C45.9102 59.4453 45.875 59.7969 45.8047 60.1719C45.5938 61.0625 45.3008 61.6367 44.9258 61.8945C44.7148 62.0352 44.4922 62.082 44.2578 62.0352C44.0469 61.9883 43.8125 61.9414 43.5547 61.8945C42.7578 61.7539 42.0781 61.8242 41.5156 62.1055C40.1328 62.8555 39.0664 62.8555 38.3164 62.1055C38.0117 61.8008 37.8242 61.332 37.7539 60.6992C37.6602 59.5508 37.7188 58.8125 37.9297 58.4844C38.1641 58.1562 38.3516 57.957 38.4922 57.8867C38.6562 57.793 38.7969 57.7109 38.9141 57.6406C39.1719 57.5234 39.3008 57.3242 39.3008 57.043C39.3008 56.832 39.3242 56.6094 39.3711 56.375C39.4414 56.1172 39.5 55.8477 39.5469 55.5664C39.6641 54.8867 39.6055 54.3242 39.3711 53.8789C39.1133 53.3633 38.9961 52.9414 39.0195 52.6133C39.0664 52.2852 39.1016 51.9922 39.125 51.7344L39.2656 50.8906C39.3125 50.2109 39.3008 49.6367 39.2305 49.168C39.1602 48.6758 39.1016 48.1719 39.0547 47.6562C39.0312 47.1172 39.0195 46.6133 39.0195 46.1445C39.043 45.6758 39.0547 45.2305 39.0547 44.8086C39.0547 43.8242 38.9492 43.2383 38.7383 43.0508C38.5508 42.8633 38.375 42.7695 38.2109 42.7695C38.0469 42.7461 37.8828 42.7344 37.7188 42.7344C37.2734 42.7812 36.9922 42.7109 36.875 42.5234C36.6172 42.2656 36.4883 41.9375 36.4883 41.5391C36.4883 41.1406 36.5586 40.8359 36.6992 40.625C36.8633 40.4141 36.9688 40.1797 37.0156 39.9219C37.0625 39.6406 37.0859 39.3477 37.0859 39.043C37.1328 38.3398 37.1094 37.8828 37.0156 37.6719C36.9219 37.4375 36.8516 37.2383 36.8047 37.0742C36.7812 36.8867 36.7695 36.7109 36.7695 36.5469C36.7695 35.8672 37.25 35.5156 38.2109 35.4922C38.7969 35.4688 39.3945 35.4805 40.0039 35.5273C40.6133 35.5508 41.0938 35.5273 41.4453 35.457C42.6641 35.2227 43.6367 35.1289 44.3633 35.1758C45.1133 35.2227 45.5938 35.2812 45.8047 35.3516C46.3906 35.5859 46.707 36.2305 46.7539 37.2852C46.7773 37.7773 46.7891 38.293 46.7891 38.832C46.7891 39.3711 46.8125 39.9219 46.8594 40.4844C46.9531 41.6562 46.5078 42.3477 45.5234 42.5586ZM52.0273 36.3359C53.1992 35.8672 53.832 35.8203 53.9258 36.1953C54.5117 36.0547 54.9453 36.2305 55.2266 36.7227C55.3203 36.8867 55.4961 37.2266 55.7539 37.7422C56.0352 38.2578 56.3281 38.8086 56.6328 39.3945C56.9609 39.9805 57.2656 40.5312 57.5469 41.0469C57.8281 41.5625 58.0156 41.9141 58.1094 42.1016C58.2031 42.2656 58.3203 42.3594 58.4609 42.3828C58.6016 42.4062 58.7422 42.3711 58.8828 42.2773C59.1875 42.043 59.2695 41.6914 59.1289 41.2227C59.0117 40.7539 58.9531 40.3906 58.9531 40.1328C58.9766 39.8516 59.0117 39.5938 59.0586 39.3594C59.1992 38.7031 59.2227 38.1758 59.1289 37.7773C59.0352 37.3789 58.9883 37.0039 58.9883 36.6523C58.9883 35.9492 59.5625 35.5977 60.7109 35.5977C60.9453 35.5977 61.2148 35.6094 61.5195 35.6328C61.8242 35.6328 62.2812 35.6094 62.8906 35.5625C63.5 35.4922 64.0273 35.6562 64.4727 36.0547C64.9414 36.4297 65.0938 37.1094 64.9297 38.0938C64.7188 39.4297 64.625 40.332 64.6484 40.8008C64.6719 41.2461 64.6836 41.668 64.6836 42.0664C64.6836 42.4883 64.6133 43.1094 64.4727 43.9297C64.2148 45.3828 64.1445 46.4141 64.2617 47.0234C64.3555 47.5625 64.4023 47.9609 64.4023 48.2188V48.7812C64.4023 48.8516 64.4258 49.0039 64.4727 49.2383C64.5195 49.4727 64.5078 49.7188 64.4375 49.9766C64.3672 50.2109 64.3555 50.4688 64.4023 50.75C64.4492 51.0312 64.3906 51.3594 64.2266 51.7344C64.0625 52.0859 63.9805 52.4844 63.9805 52.9297C64.0039 53.3516 63.9805 53.7383 63.9102 54.0898C63.8398 54.4414 63.875 54.8516 64.0156 55.3203C64.2266 56.0469 64.0508 57.3242 63.4883 59.1523C63.3945 59.5977 63.2422 59.8906 63.0312 60.0312C62.8438 60.1484 62.7031 60.2422 62.6094 60.3125C62.5156 60.3828 62.4453 60.5352 62.3984 60.7695C62.2812 61.2383 62.0352 61.4492 61.6602 61.4023C61.168 61.332 60.7695 60.8398 60.4648 59.9258C60.043 58.6602 59.7031 57.9219 59.4453 57.7109C59.1875 57.5 58.9883 57.207 58.8477 56.832C58.7305 56.457 58.625 56.0703 58.5312 55.6719C58.3438 54.6875 58.1562 54.125 57.9688 53.9844C57.7812 53.8203 57.6289 53.5156 57.5117 53.0703C57.3945 52.625 57.2773 52.3086 57.1602 52.1211C57.043 51.9336 56.9258 51.7227 56.8086 51.4883C56.7148 51.2539 56.6094 51.0195 56.4922 50.7852C56.1875 50.1992 55.8945 49.9414 55.6133 50.0117C55.4492 50.0586 55.332 50.2695 55.2617 50.6445C55.2148 50.9961 55.168 51.4297 55.1211 51.9453C54.9805 53.4453 54.7461 54.5234 54.418 55.1797C54.6289 55.7891 54.7812 56.3516 54.875 56.8672C54.9922 57.3594 54.9688 57.957 54.8047 58.6602C54.6641 59.3398 54.5469 59.8906 54.4531 60.3125C54.3594 60.7344 54.2539 61.1094 54.1367 61.4375C54.043 61.7422 53.9258 61.9766 53.7852 62.1406C53.6445 62.3047 53.4688 62.3633 53.2578 62.3164C53.0469 62.293 52.9062 62.2344 52.8359 62.1406C52.7656 62.0469 52.6953 61.9531 52.625 61.8594C52.4609 61.5547 52.1797 61.332 51.7812 61.1914C51.3828 61.0508 51.1016 60.875 50.9375 60.6641C50.7734 60.4531 50.668 60.207 50.6211 59.9258C50.5742 59.6445 50.5391 59.3398 50.5156 59.0117C50.5156 58.6836 50.4336 58.332 50.2695 57.957C50.1289 57.5586 50.0586 57.2305 50.0586 56.9727C50.0586 56.7148 50.082 56.4922 50.1289 56.3047C50.1758 56.0938 50.2227 55.8945 50.2695 55.707C50.3164 55.4961 50.2695 55.1797 50.1289 54.7578C49.8477 53.8906 49.9297 53.1758 50.375 52.6133C50.7031 52.1445 50.8438 51.7461 50.7969 51.418C50.6562 50.7383 50.3867 50.293 49.9883 50.082C49.8008 49.9648 49.707 49.8242 49.707 49.6602C49.707 49.3086 49.6484 49.0508 49.5312 48.8867C49.4375 48.6992 49.4375 48.4648 49.5312 48.1836C49.625 47.9023 49.6133 47.668 49.4961 47.4805C49.4961 47.457 49.4609 47.2227 49.3906 46.7773C49.3438 46.3086 49.2852 45.7227 49.2148 45.0195C49.168 44.293 49.1094 43.5195 49.0391 42.6992C48.9688 41.8555 48.9219 41.0469 48.8984 40.2734C48.8047 38.4922 48.8164 37.4492 48.9336 37.1445C49.0742 36.8398 49.2734 36.6172 49.5312 36.4766C49.8125 36.3359 50.1055 36.2422 50.4102 36.1953C51.0664 36.125 51.6055 36.1719 52.0273 36.3359ZM79.9766 41.5039C80.0469 41.6445 80.0703 41.7969 80.0469 41.9609C80.0234 42.125 79.8594 42.4062 79.5547 42.8047C79.25 43.2031 79.0625 43.6367 78.9922 44.1055C78.9453 44.5508 78.9336 44.9258 78.957 45.2305C78.9805 45.5117 78.9805 45.7578 78.957 45.9688C78.9336 46.4844 78.6523 46.8359 78.1133 47.0234C77.6445 47.2109 77.2812 47.1992 77.0234 46.9883C76.7656 46.7773 76.5547 46.5078 76.3906 46.1797C76.2266 45.8281 76.0977 45.5352 76.0039 45.3008C75.9336 45.043 75.8047 44.9023 75.6172 44.8789C75.2891 44.8086 75.0312 44.8438 74.8438 44.9844C74.6797 45.125 74.5508 45.2422 74.457 45.3359C74.2695 45.5234 74.0703 45.6523 73.8594 45.7227C73.6719 45.793 73.5195 45.8633 73.4023 45.9336C73.168 46.0977 73.0742 46.3672 73.1211 46.7422C73.2148 47.4688 74.0234 48.5703 75.5469 50.0469C75.8281 50.3281 76.1562 50.6328 76.5312 50.9609C76.9297 51.2891 77.3164 51.6641 77.6914 52.0859C78.5352 53.0938 79.0039 54.2305 79.0977 55.4961C79.1914 56.7852 79.0039 57.9102 78.5352 58.8711C78.1602 59.6445 77.7148 60.1484 77.1992 60.3828C76.8008 60.5938 76.5312 60.875 76.3906 61.2266C76.25 61.5547 76.1445 61.8008 76.0742 61.9648C76.0039 62.1055 75.8516 62.2227 75.6172 62.3164C75.4062 62.4336 75.1602 62.4805 74.8789 62.457C74.5977 62.4336 74.3281 62.375 74.0703 62.2812C73.8359 62.2109 73.6133 62.1172 73.4023 62C73.2148 61.9062 73.0508 61.8477 72.9102 61.8242C72.793 61.8008 72.6758 61.8477 72.5586 61.9648C72.4414 62.0586 72.3242 62.1641 72.207 62.2812C71.8555 62.6328 71.5391 62.7617 71.2578 62.668C70.9766 62.5977 70.6484 62.4688 70.2734 62.2812C69.8984 62.0938 69.5352 61.8594 69.1836 61.5781C67.918 60.5938 67.4844 59.5859 67.8828 58.5547C68.1406 57.875 68.4219 57.3945 68.7266 57.1133C69.0547 56.832 69.3125 56.6914 69.5 56.6914C69.8047 56.6914 70.0039 56.8086 70.0977 57.043C70.2148 57.2539 70.3086 57.4414 70.3789 57.6055C70.4492 57.7461 70.5312 57.8633 70.625 57.957C70.7188 58.0508 70.8594 58.1445 71.0469 58.2383C71.2578 58.332 71.4805 58.3906 71.7148 58.4141C72.3008 58.4609 72.7461 58.2266 73.0508 57.7109C73.3555 57.1953 73.4727 56.6328 73.4023 56.0234C73.2383 54.9219 73.0039 54.4531 72.6992 54.6172C72.4414 54.7812 72.125 54.793 71.75 54.6523C71.375 54.4883 71.1758 54.2891 71.1523 54.0547C71.1289 53.7969 71.082 53.5508 71.0117 53.3164C70.9414 53.082 70.8594 52.8594 70.7656 52.6484C70.5547 52.1094 70.3672 51.8164 70.2031 51.7695C70.0156 51.7227 69.7578 51.6992 69.4297 51.6992C69.125 51.6992 68.7852 51.5 68.4102 51.1016C68.0352 50.6797 67.7656 50.1641 67.6016 49.5547C67.4375 48.9219 67.2969 48.3828 67.1797 47.9375C67.0625 47.4688 66.957 47.1055 66.8633 46.8477C66.7695 46.5898 66.6875 46.3203 66.6172 46.0391C66.3828 45.1484 66.3711 44 66.582 42.5938C66.7227 41.7734 66.9805 41.0586 67.3555 40.4492C67.7305 39.8164 68.1523 39.1953 68.6211 38.5859C69.5117 37.3906 70.332 36.5586 71.082 36.0898C71.832 35.6211 72.4062 35.5742 72.8047 35.9492C73.1562 36.2539 73.5312 36.3828 73.9297 36.3359C74.3516 36.2656 74.6797 36.1953 74.9141 36.125L75.5469 35.9844C75.9453 35.8906 76.3438 35.9023 76.7422 36.0195C77.1641 36.1367 77.5391 36.5352 77.8672 37.2148C78.0312 37.5664 78.1953 37.8711 78.3594 38.1289C78.5469 38.3867 78.7227 38.6328 78.8867 38.8672C79.2383 39.4297 79.4375 39.8984 79.4844 40.2734C79.5547 40.625 79.6367 40.8828 79.7305 41.0469C79.8477 41.2109 79.9297 41.3633 79.9766 41.5039Z" fill="#FBF8F8"/>
</svg>
