<svg xmlns="http://www.w3.org/2000/svg" viewBox="0 0 83.06 90.87"><g id="レイヤー_2" data-name="レイヤー 2"><g id="WORKS"><g id="指を立てた手"><path d="M24.13,13.59h7v-.48c-1-.51-.58-.48-1.2-1.2l-.48-.24v-.48l-.72-.48v-.48l-1.2-1V8.79L27,8.55c-.14-.21-.85-1.62-1-1.68h-1v.24l-.72-.24a.61.61,0,0,1-.72.24V6.87h-1v.24H18.85c-.9,1.94-3.76,3.37-4.08,5.76h-.48l-.24.72h7.44C22,14.06,23.13,13.6,24.13,13.59Z" style="fill:#fff;fillRule:evenodd"/><path d="M36.85,46l2.16.48v.24l1.44.48v.24l1,.24.48.72h.48l.24.48a3.91,3.91,0,0,0,1.92,1.2,3,3,0,0,0,.72,1.2h.24v1.2h.24v1H46l-.24.72H46c.27,1.17-.62,2.29-1,2.88v.48l-.72.48-.24.72h-.48l-.24.48h-.24l-.24.72-.72.48v.24h-.48l-.48.72c-.67.48-.94.28-1.2,1.2l-4.56,1.68a29.51,29.51,0,0,1,1.44,3.36,2.67,2.67,0,0,1,1.2.72v.24h.48l.72,1,1.2.24V70h.48v.24h4.32a15.32,15.32,0,0,1,1.92-.72l1.2-1.68.48-.24v-.48h.24v-.48h.24v-.72h.24l.24-1h.24v-.72h.24l-.24-.72c.08-.14.4-.07.48-.48-.08-.14-.41-.15-.24-.72h.24v-.72h.24L51.25,57h.24v-2.4h.24V51.75A.63.63,0,0,0,52,51h-.24V48.87h-.24v-2.4h-.24V45H51v-1.2h-.24v-.72h-.24v-.72h-.24v-.72l-.72-.48-.24-1L48.85,40l-.72-1c-.88-.62-4.25-2.05-6.24-1.44v.24h-1v.24h-.72v.24h-.48v.24H39v.24a2.82,2.82,0,0,1-1.2.72l-.24.72h-.24v.48l-.48.24-.24,1-.48.24v.48h-.24v2.88l1,.24Z" style="fill:#fff500;fillRule:evenodd"/><path d="M13.81,39.27l.48.24c.36.86-.08,4.23-.24,4.8l.24,3.6,2.16-.72h1V47c.27-.27.1,0,.24-.48-.58-.63,0-2.12-.24-3.12h-.24v-1.2h.24l-.24-.48h.24V39c-.05-.32-.4-.6-.24-1.2l.72-1.92a2.57,2.57,0,0,1,1-.24v.24h.24c0,4,.6,6.84.48,10.56A8.41,8.41,0,0,0,21.49,46h1.44l.24-.48L28.69,45v-1.2s-.32,0-.24-.48h.24V38.79s-.31-.08-.24-.48h.24l.24-1.68h.24v-.24h.72v.24h.24v1h.24v.24a.42.42,0,0,0-.24.48h.24v.48h.24L30.85,45a5.25,5.25,0,0,1,1.92.24V45c.52-.6.18-2.47.48-3.36.2-.58,1.17-1.53.72-2.64l-.48-.24v-2.4a62.27,62.27,0,0,0,0-6.72V27.51h.24a.65.65,0,0,0-.24-.72l.24-.72h-.24V23h.24v-.24h-.24v-.24h.24V18.39L34,17h-.24v-.48h-3.6c0,3.51,0,5.58,0,9.12h-.72v.48h-1c-.2-.44-.29-.67-.48-1.2h-.24v-.24H28V22.71c0-1.93-.32-4.72.24-6.24H24.85v-.24H22.93v.24l-3.36-.24a8.39,8.39,0,0,0-.24,2.64c-.46.51-.25,2.2-.24,3.12l.24,2.4h.24c.05.34-.2-.09-.24.24,0,.49.24.48.24.48l-.24,2.16c-.51.29-.52.54-1.2.72v-.24h-.24v-1.2l-.48-.24v-.72h-.24l.24-2.88h-.24V20.55c0-.43-.24-.48-.24-.48a.69.69,0,0,1,.24-.72.67.67,0,0,0-.24-.72l.24-2.4L13.33,16l.48,14.16Zm9.12-8.64h-.24V29.19h.24a6.36,6.36,0,0,0-.24-2.64l.48-.24-.24-.72h.24v-1a2.3,2.3,0,0,0,.48-.48c.66.18.54.07.72.72h.24l-.24,1.2v.24h.24v3.12h.24v1.92c.51,1.83,0,4.1,0,6a1,1,0,0,0-.48.48h-.48c-.23-.43-.33-.38-.48-1-.9-1-.07-3-.48-4.56h-.24C22.46,31.54,23,31.18,22.93,30.63Z" style="fill:#fff500;fillRule:evenodd"/><path d="M58.93,70h1.2v-.24h.48l.24-.48h.48l.24-.48h.48v-.24a3.51,3.51,0,0,1,1.44-1,1.94,1.94,0,0,1,.48-1h.24v-.48l.48-.24v-.48l.48-.48v-.48h.24V64h.24v-.48h.24c0-.13-.41-.83-.24-1.44h.24V60.63h.24v-1h.24v-1h.24V57h.24V54.39h.24V51h-.24c-.21-.75.28-1.79.24-2.16h-.24V46.23h-.24v-.72h-.24v-.72h-.24v-.72h-.24v-.48l-2.16-2.88h-.48L62.77,40h-.48l-.24-.48c-.3-.28-.7-.4-1-.72H58.21c-.06,0-.08-.31-.48-.24l-2.16.72a4.81,4.81,0,0,1-1.92,2.16l.24.72h.24v1h.24v.48h.24v.24h-.24l.24,2.64h.24v1h.24v2.88h.24V51h.24v3.36h-.24V58h-.24v1.44h-.24v2.16h-.24v1h-.24l-.24,2.88h-.24v.72h-.24v.48h-.24v.72h-.24l-.48,1.44h.24C54,70.09,56.71,70.67,58.93,70Z" style="fill:#fff500;fillRule:evenodd"/><path d="M74.29,70v.48a15.12,15.12,0,0,0-1.68.72L71.89,71l-.24.48h-1.2v.24h-.24v-.24l-1.68.24v-.24H66.85v-.24h-.48c-.76-.38-1-.83-2.16-1a3.62,3.62,0,0,1-1.2,1.2h-.48l-.24.48-1.44.48v.48l-4.32,1v-.24h-1.2v-.24h-1v-.24h-.48v-.24h-.72l-.48-.72-1-.24-.24-.48-1.2-.24v.24l-.72.24v.24h-.48v.24h-.48l-.24.48h-.72v.24c-1.45.58-3.53.46-5.52.48A11.61,11.61,0,0,0,42.85,75L43.09,77h.24v.72h.24l-.24,1.68-1.2.24-1.2-1.44h-.24L40.45,77h-.24v-.48l-.48-.24v-.48h-.24l-.72-2.16-.48-.24v-.48l-.48-.24v-.48l-.48-.24v-.48l-1.2-1v-.24h-.72l-1-1.2H34v-.24h-.48l-.24-.48-1-.24-.24-.48h-.48l-.48-.48h-.48v-.24h-.48v-.24h-.48v-.24h-.48v-.24h-2.4v.24c-.58.13-.62-.22-1-.24-.52,0-.48.24-.48.24H23.17v.24H20.53v-.24H17.17v-.24H15v-.24l-1-.24A8,8,0,0,1,13.81,64c2.11.05,4.45.34,6.48-.24h2.4v-.24h.48v-.24h2.4V63H27v-.24h1.2v-.24h1v-.24h1v-.24h1.44l5.52-1.92v-.48c.18-.29.91-.29,1.2-.48l.24-.48H39l.24-.48h.48V58h.48l.24-.48,1-.24,1.44-2.16A7.21,7.21,0,0,0,42.37,52c-.3-.16-.33-.38-.48-.48h-.48l-.48-.72-1-.24-.24-.48h-.48v-.24h-.48v-.24h-.72l-.24-.48a8.3,8.3,0,0,0-1.92-.48v-.24l-.72.24v-.24H33.73c-.78-.22-6.13-.58-7.2-.24v.24h-.72v.24h-2.4v.24h-.48v.24l-1.68.24v.24h-.72v.24H19.09v.24h-1v.24h-1v.24h-.72v.24h-.72V51l-1.68.24v.24l-1.68.24V52h-.72v.24h-.72v.24c-.34.21-.41.17-1,.24v.48H9.73c-.6.67-1.13.35-1.44,1.44H7.81l-1.2,1.68H6.13a3.26,3.26,0,0,1-.72,1.44H5.17L4.93,59H4.69v1.2H4.45v.48H4.21L4,62.31H3.73c-.35,1.17,0,7.06.24,7.92l.24,2.16h.24l.24,1h.24l.24,1.44h.24v.48l.48.24.24,1.2.48.24v.48l.48.24a6.22,6.22,0,0,1,1.68,2.16c.6.17.39.13.72.48h.24v.48l.48.24.48.72h.48l1,1.2,1.44.48.24.48.72.24v.24l1.68.48.24.48h.48v.24l1.68.24v.24h.72v.24h.48v.24h1.44v.24H22V87h2.4c3.43,1,9.41-.16,11.76-1.2v-.24l1-.24v-.24h.72v-.24l1-.24v-.24a3.43,3.43,0,0,1,1.92-.48c.67.79,1.85.76,2.88,1.2v.24h.48v.24h.72v.24h.72v.24h1.2a22.12,22.12,0,0,0,11.28,0l2.64-.24v-.24h.48v-.24l1.44-.24v-.24H63v-.24l1.44-.24v-.24l1-.24.24-.48h.48v-.24l1.44-.48.24-.48h.48l.48-.72h.48l.48-.72h.48v-.24a4.3,4.3,0,0,1,1.68-1.2v-.72c2.4-1.39,3.6-5.25,3.6-9.12h-.24C75,69.84,74.81,69.88,74.29,70Z" style="fill:#fff500;fillRule:evenodd"/><path d="M79.33,48.63h-.24L78.85,47h-.24v-.48h-.24V46h-.24v-.48h-.24V45h-.24v-.48l-1.44-1.92h-.48l-.72-1h-.48l-.24-.48-1-.24v-.24h-1.2v-.24A9.41,9.41,0,0,0,68.77,40a3.07,3.07,0,0,1-1.2,1c.12.22.46.44.48.48l.24,1.2h.24v.72h.24v.48H69v1h.24v.48h.24l.24,1.92H70l.24,2.64H70v1l.48.24c.4,1-.4,3.24-.48,4.08l-.24,4.08h-.24l-.24,1.68H69v.48h-.24l-.24,1.44h-.24v1.68h-.24v.72h-.24v.72h-.24v.48l-.48.24v.48h-.24v.48h-.24l-.24.72h.48a3.77,3.77,0,0,0,2.4.72v-.24h1.2v-.24h1v-.24l1.44-.48v-.24h.48l1.2-1.44.72-.48v-.48l1-.72.24-.72.48-.24.24-1,.48-.24v-.72h.24l.48-1.44h.24v-.48h.24V59l.48-.24v-.24h-.24l.72-1.92V51l-.48-.24Z" style="fill:#fff500;fillRule:evenodd"/><path d="M25.81,3.27l1,.24V4c1.1.28,3.58,3.11,3.84,4.32h.48c.28,1.33,1.34,1.66,1.68,2.88h.48v.48c.6.39.55.86,1,1.44l1.2,1,.24.72.48.24V26.31h.24V28h.24c.06.4-.23.42-.24.48v5.76h.24v2.4l1.44-.48.24-.48H39v-.24h.48v-.24a10.93,10.93,0,0,1,4.56-.48l4.8,1.68.24.48h.48l.24.48h.24l.24.48h.48v.24c.57.48.73.83,1.68,1a6.92,6.92,0,0,0,.72-1.44l.72-.24v-.24h.48l.24-.48c.56-.35,3.66-1.28,4.8-1v.24h1.92v.24l1,.24.24.48H63l.24.48,1,.24v.24a2.17,2.17,0,0,0,1.68.72c.62-.76,1.15-.59,2.16-1v-.24h1.68a.63.63,0,0,1,.72-.24v.24h1.68v.24h.72v.24l.48-.24v.24h.48l.24.48,1.44.24v.24H76l.24.48h.72l.24.48h.48l.72,1,.48.24v.48l1.2,1v.48l.48.24v.72h.24l.24,1h.24v.72h.24v.72h.24V47H82v1.2h.24v.48h.24v1.44l.48.24c.09.33-.08,0-.24.24a10.59,10.59,0,0,1,.24,4.08h-.24l.24.48h-.24v.72h-.24v1.68h-.24v2.16H82v.72h-.24a1.82,1.82,0,0,0-.48,1.2h-.48l-.24.72h-.24V63h-.24v1.2l-.48.24a3.64,3.64,0,0,0-.72,1.68h-.48l.24.72h.24a29.88,29.88,0,0,1-.24,6.48h-.24l-.24,1h-.24l-.24,2.16h-.24V77h-.24v.48l-.48.24-.24,1.2-.48.24-.24,1-.72.48-.24,1.2h-.48c-.31,1.18-1.16,1.68-1.92,2.4l-.24.48h-.48l-.24.48h-.72l-.48.72-1.44.48v.24h-.48v.24h-.48V87h-.48v.24h-.48v.24h-.72l-.24.48-1.2.24v.24h-.48v.24L62.77,89v.24H61.33v.24h-.48v.24h-1.2v.24H58v.24h-2.4v.24H52v-.24H50.05v-.24l-3.6-.48v-.24h-1.2V89h-.48v-.24l-4.08-1.44-.24.48h-.72l-.24.48L38.77,88l-.24.48h-.48v.24L35.89,89l-.24.48L34,89.67v.24h-1.2l-.24.48L28,90.63l-2.16.24-.24-.48c-.9-.36-2.06.35-2.64.24v-.24h-.72v-.24H20.05v-.24h-.48v-.24h-.72v-.24L15.49,89l-.24-.48c-.61-.28-1.18.06-1.68-.24V88l-.72-.24-.24-.48h-.48V87h-.48l-.48-.48h-.48l-.48-.72-1-.24-.48-.72H8.29c-.62-.44-.4-.91-1.44-1.2v-.48c-1.32-.63-1.17-1.32-1.92-2.4l-.72-.48-.48-1.44-.48-.24-.48-1.44L2.29,77v-.48l-.48-.24v-.72H1.57V75H1.33l-.24-1.68H.85v-.72H.61v-.72H.37V70a15.06,15.06,0,0,1-.24-5H.37L.13,63.51H.37v-1.2H.61V60.63H.85v-.72h.24v-.48h.24v-.72h.24l.24-1h.24v-.48L2.53,57v-.72l1-.72v-.48L4,54.87v-.24h.48v-.48h.48l.72-1L6.37,53v-.48h.24l.48-.72h.48l.72-1h.48l2.4-1.44v-.72c-.38-.43-.24-1.59-.24-2.4l.24-6C10.26,37,10.72,32,10.69,28V26.55h-.24a7,7,0,0,1,.24-2.64l-.24-5-.24-3.36h.24l.24-1.44h.48c.06-.54,0-.63.24-1h.24v-.48h.24v-.48l.48-.24v-.72l.48-.24v-.48l.72-.48V9.51l.48-.24V8.79l.72-.48V7.83l.48-.24V7.11L16,6.63V6.15l.72-.48V5.19l1-.72V4l1-.72V2.79l.48-.24.48-.72h.24V1.35h.24a2.58,2.58,0,0,0,.72-1.2c1.16,0,1.8-.31,2.16,0l.72.24.24.72h.24c.57.66,1.44,1.23,1.68,2.16Zm-11,9.6h-.48l-.24.72h7.44c.54.47,1.64,0,2.64,0h7v-.48c-1-.51-.58-.48-1.2-1.2l-.48-.24v-.48l-.72-.48v-.48l-1.2-1V8.79L27,8.55c-.14-.21-.85-1.62-1-1.68h-1v.24l-.72-.24a.61.61,0,0,1-.72.24V6.87h-1v.24H18.85c-.9,1.94-3.76,3.37-4.08,5.76ZM13.33,16l.48,14.16v9.12l.48.24c.36.86-.08,4.23-.24,4.8l.24,3.6,2.16-.72h1V47c.27-.27.1,0,.24-.48-.58-.63,0-2.12-.24-3.12h-.24v-1.2h.24l-.24-.48h.24V39c-.05-.32-.4-.6-.24-1.2l.72-1.92a2.57,2.57,0,0,1,1-.24v.24h.24c0,4,.6,6.84.48,10.56A8.41,8.41,0,0,0,21.49,46h1.44l.24-.48L28.69,45v-1.2s-.32,0-.24-.48h.24V38.79s-.31-.08-.24-.48h.24l.24-1.68h.24v-.24h.72v.24h.24v1h.24v.24a.42.42,0,0,0-.24.48h.24v.48h.24L30.85,45a5.25,5.25,0,0,1,1.92.24V45c.52-.6.18-2.47.48-3.36.2-.58,1.17-1.53.72-2.64l-.48-.24v-2.4a62.27,62.27,0,0,0,0-6.72V27.51h.24a.65.65,0,0,0-.24-.72l.24-.72h-.24V23h.24v-.24h-.24v-.24h.24V18.39L34,17h-.24v-.48h-3.6c0,3.51,0,5.58,0,9.12h-.72v.48h-1c-.2-.44-.29-.67-.48-1.2h-.24v-.24H28V22.71c0-1.93-.32-4.72.24-6.24H24.85v-.24H22.93v.24l-3.36-.24a8.39,8.39,0,0,0-.24,2.64c-.46.51-.25,2.2-.24,3.12l.24,2.4h.24c.05.34-.2-.1-.24.24,0,.49.24.48.24.48l-.24,2.16c-.51.29-.52.54-1.2.72v-.24h-.24v-1.2l-.48-.24v-.72h-.24l.24-2.88h-.24V20.55c0-.43-.24-.48-.24-.48a.69.69,0,0,1,.24-.72.66.66,0,0,0-.24-.72l.24-2.4L13.33,16Zm10.32,8.16c.66.18.54.07.72.72h.24l-.24,1.2v.24h.24v3.12h.24v1.92c.51,1.83,0,4.1,0,6a1,1,0,0,0-.48.48h-.48c-.23-.43-.33-.38-.48-1-.9-1-.07-3-.48-4.56h-.24c-.23-.77.33-1.13.24-1.68h-.24V29.19h.24a6.36,6.36,0,0,0-.24-2.64l.48-.24-.24-.72h.24v-1a2.3,2.3,0,0,0,.48-.48ZM37.81,39.51l-.24.72h-.24v.48l-.48.24-.24,1-.48.24v.48h-.24v2.88l1,.24V46l2.16.48v.24l1.44.48v.24l1,.24.48.72h.48l.24.48a3.91,3.91,0,0,0,1.92,1.2,3,3,0,0,0,.72,1.2h.24v1.2h.24v1H46l-.24.72H46c.27,1.17-.62,2.29-1,2.88v.48l-.72.48-.24.72h-.48l-.24.48h-.24l-.24.72-.72.48v.24h-.48l-.48.72c-.67.48-.94.28-1.2,1.2l-4.56,1.68a29.51,29.51,0,0,1,1.44,3.36,2.67,2.67,0,0,1,1.2.72v.24h.48l.72,1,1.2.24V70h.48v.24h4.32a15.32,15.32,0,0,1,1.92-.72l1.2-1.68.48-.24v-.48h.24v-.48h.24v-.72h.24l.24-1h.24v-.72h.24l-.24-.72c.08-.14.4-.07.48-.48-.08-.14-.41-.15-.24-.72h.24v-.72h.24L51.25,57h.24v-2.4h.24V51.75A.63.63,0,0,0,52,51h-.24V48.87h-.24v-2.4h-.24V45H51v-1.2h-.24v-.72h-.24v-.72h-.24v-.72l-.72-.48-.24-1L48.85,40l-.72-1c-.88-.62-4.25-2.05-6.24-1.44v.24h-1v.24h-.72v.24h-.48v.24H39v.24a2.82,2.82,0,0,1-1.2.72ZM63.49,67.59a1.94,1.94,0,0,1,.48-1h.24v-.48l.48-.24v-.48l.48-.48v-.48h.24V64h.24v-.48h.24c0-.13-.41-.83-.24-1.44h.24V60.63h.24v-1h.24v-1h.24V57h.24V54.39h.24V51h-.24c-.21-.75.28-1.79.24-2.16h-.24V46.23h-.24v-.72h-.24v-.72h-.24v-.72h-.24v-.48l-2.16-2.88h-.48L62.77,40h-.48l-.24-.48c-.3-.28-.7-.4-1-.72H58.21c-.06,0-.08-.31-.48-.24l-2.16.72a4.81,4.81,0,0,1-1.92,2.16l.24.72h.24v1h.24v.48h.24v.24h-.24l.24,2.64h.24v1h.24v2.88h.24V51h.24v3.36h-.24V58h-.24v1.44h-.24v2.16h-.24v1h-.24l-.24,2.88h-.24v.72h-.24v.48h-.24v.72h-.24l-.48,1.44h.24c1,1.3,3.78,1.88,6,1.2h1.2v-.24h.48l.24-.48h.48l.24-.48h.48v-.24a3.51,3.51,0,0,1,1.44-1ZM68.77,40a3.07,3.07,0,0,1-1.2,1c.12.22.46.44.48.48l.24,1.2h.24v.72h.24v.48H69v1h.24v.48h.24l.24,1.92H70l.24,2.64H70v1l.48.24c.4,1-.4,3.24-.48,4.08l-.24,4.08h-.24l-.24,1.68H69v.48h-.24l-.24,1.44h-.24v1.68h-.24v.72h-.24v.72h-.24v.48l-.48.24v.48h-.24v.48h-.24l-.24.72h.48a3.77,3.77,0,0,0,2.4.72v-.24h1.2v-.24h1v-.24l1.44-.48v-.24h.48l1.2-1.44.72-.48v-.48l1-.72.24-.72.48-.24.24-1,.48-.24v-.72h.24l.48-1.44h.24v-.48h.24V59l.48-.24v-.24h-.24l.72-1.92V51l-.48-.24V48.63h-.24L78.85,47h-.24v-.48h-.24V46h-.24v-.48h-.24V45h-.24v-.48l-1.44-1.92h-.48l-.72-1h-.48l-.24-.48-1-.24v-.24h-1.2v-.24A9.41,9.41,0,0,0,68.77,40ZM10,52.71v.48H9.73c-.6.67-1.13.35-1.44,1.44H7.81l-1.2,1.68H6.13a3.26,3.26,0,0,1-.72,1.44H5.17L4.93,59H4.69v1.2H4.45v.48H4.21L4,62.31H3.73c-.35,1.17,0,7.06.24,7.92l.24,2.16h.24l.24,1h.24l.24,1.44h.24v.48l.48.24.24,1.2.48.24v.48l.48.24a6.22,6.22,0,0,1,1.68,2.16c.6.17.39.13.72.48h.24v.48l.48.24.48.72h.48l1,1.2,1.44.48.24.48.72.24v.24l1.68.48.24.48h.48v.24l1.68.24v.24h.72v.24h.48v.24h1.44v.24H22V87h2.4c3.43,1,9.41-.16,11.76-1.2v-.24l1-.24v-.24h.72v-.24l1-.24v-.24a3.43,3.43,0,0,1,1.92-.48c.67.79,1.85.76,2.88,1.2v.24h.48v.24h.72v.24h.72v.24h1.2a22.12,22.12,0,0,0,11.28,0l2.64-.24v-.24h.48v-.24l1.44-.24v-.24H63v-.24l1.44-.24v-.24l1-.24.24-.48h.48v-.24l1.44-.48.24-.48h.48l.48-.72h.48l.48-.72h.48v-.24a4.3,4.3,0,0,1,1.68-1.2v-.72c2.4-1.39,3.6-5.25,3.6-9.12h-.24c-.28.33-.44.37-1,.48v.48a15.12,15.12,0,0,0-1.68.72L71.89,71l-.24.48h-1.2v.24h-.24v-.24l-1.68.24v-.24H66.85v-.24h-.48c-.76-.38-1-.83-2.16-1a3.62,3.62,0,0,1-1.2,1.2h-.48l-.24.48-1.44.48v.48l-4.32,1v-.24h-1.2v-.24h-1v-.24h-.48v-.24h-.72l-.48-.72-1-.24-.24-.48-1.2-.24v.24l-.72.24v.24h-.48v.24h-.48l-.24.48h-.72v.24c-1.45.58-3.53.46-5.52.48A11.61,11.61,0,0,0,42.85,75L43.09,77h.24v.72h.24l-.24,1.68-1.2.24-1.2-1.44h-.24L40.45,77h-.24v-.48l-.48-.24v-.48h-.24l-.72-2.16-.48-.24v-.48l-.48-.24v-.48l-.48-.24v-.48l-1.2-1v-.24h-.72l-1-1.2H34v-.24h-.48l-.24-.48-1-.24-.24-.48h-.48l-.48-.48h-.48v-.24h-.48v-.24h-.48v-.24h-.48v-.24h-2.4v.24c-.58.13-.62-.22-1-.24-.52,0-.48.24-.48.24H23.17v.24H20.53v-.24H17.17v-.24H15v-.24l-1-.24A8,8,0,0,1,13.81,64c2.11.05,4.45.34,6.48-.24h2.4v-.24h.48v-.24h2.4V63H27v-.24h1.2v-.24h1v-.24h1v-.24h1.44l5.52-1.92v-.48c.18-.29.91-.29,1.2-.48l.24-.48H39l.24-.48h.48V58h.48l.24-.48,1-.24,1.44-2.16A7.21,7.21,0,0,0,42.37,52c-.3-.16-.33-.38-.48-.48h-.48l-.48-.72-1-.24-.24-.48h-.48v-.24h-.48v-.24h-.72l-.24-.48a8.3,8.3,0,0,0-1.92-.48v-.24l-.72.24v-.24H33.73c-.78-.22-6.13-.58-7.2-.24v.24h-.72v.24h-2.4v.24h-.48v.24l-1.68.24v.24h-.72v.24H19.09v.24h-1v.24h-1v.24h-.72v.24h-.72V51l-1.68.24v.24l-1.68.24V52h-.72v.24h-.72v.24c-.34.21-.41.17-1,.24Z" style="fill:#a85e0e;fillRule:evenodd"/></g></g></g></svg>